<?xml version="1.0" encoding="UTF-8" standalone="no"?>
<!-- Created with Inkscape (http://www.inkscape.org/) -->

<svg
   xmlns:dc="http://purl.org/dc/elements/1.1/"
   xmlns:cc="http://creativecommons.org/ns#"
   xmlns:rdf="http://www.w3.org/1999/02/22-rdf-syntax-ns#"
   xmlns:svg="http://www.w3.org/2000/svg"
   xmlns="http://www.w3.org/2000/svg"
   xmlns:sodipodi="http://sodipodi.sourceforge.net/DTD/sodipodi-0.dtd"
   xmlns:inkscape="http://www.inkscape.org/namespaces/inkscape"
   width="154.74074mm"
   height="67.073639mm"
   viewBox="0 0 548.29395 237.6625"
   id="svg6553"
   version="1.1"
   inkscape:version="0.91 r13725"
   sodipodi:docname="figure1.svg">
  <defs
     id="defs6555">
    <clipPath
       id="clipPath5343"
       clipPathUnits="userSpaceOnUse">
      <path
         style="clip-rule:evenodd"
         inkscape:connector-curvature="0"
         id="path5345"
         d="m 87.84,83.76 447,0 0,222 -447,0 0,-222 z" />
    </clipPath>
    <clipPath
       id="clipPath5331"
       clipPathUnits="userSpaceOnUse">
      <path
         style="clip-rule:evenodd"
         inkscape:connector-curvature="0"
         id="path5333"
         d="m 87.84,83.76 447,0 0,222 -447,0 0,-222 z" />
    </clipPath>
    <clipPath
       id="clipPath5315"
       clipPathUnits="userSpaceOnUse">
      <path
         style="clip-rule:evenodd"
         inkscape:connector-curvature="0"
         id="path5317"
         d="m 87.84,83.76 447,0 0,222 -447,0 0,-222 z" />
    </clipPath>
    <clipPath
       id="clipPath5303"
       clipPathUnits="userSpaceOnUse">
      <path
         style="clip-rule:evenodd"
         inkscape:connector-curvature="0"
         id="path5305"
         d="m 87.84,83.76 447,0 0,222 -447,0 0,-222 z" />
    </clipPath>
    <clipPath
       id="clipPath5285"
       clipPathUnits="userSpaceOnUse">
      <path
         style="clip-rule:evenodd"
         inkscape:connector-curvature="0"
         id="path5287"
         d="m 87.84,83.76 447,0 0,222 -447,0 0,-222 z" />
    </clipPath>
    <clipPath
       id="clipPath5273"
       clipPathUnits="userSpaceOnUse">
      <path
         style="clip-rule:evenodd"
         inkscape:connector-curvature="0"
         id="path5275"
         d="m 87.84,83.76 447,0 0,222 -447,0 0,-222 z" />
    </clipPath>
    <clipPath
       id="clipPath5261"
       clipPathUnits="userSpaceOnUse">
      <path
         style="clip-rule:evenodd"
         inkscape:connector-curvature="0"
         id="path5263"
         d="m 87.84,83.76 447,0 0,222 -447,0 0,-222 z" />
    </clipPath>
    <clipPath
       id="clipPath5249"
       clipPathUnits="userSpaceOnUse">
      <path
         style="clip-rule:evenodd"
         inkscape:connector-curvature="0"
         id="path5251"
         d="m 87.84,83.76 447,0 0,222 -447,0 0,-222 z" />
    </clipPath>
    <clipPath
       id="clipPath5237"
       clipPathUnits="userSpaceOnUse">
      <path
         style="clip-rule:evenodd"
         inkscape:connector-curvature="0"
         id="path5239"
         d="m 87.84,83.76 447,0 0,222 -447,0 0,-222 z" />
    </clipPath>
    <clipPath
       id="clipPath5225"
       clipPathUnits="userSpaceOnUse">
      <path
         style="clip-rule:evenodd"
         inkscape:connector-curvature="0"
         id="path5227"
         d="m 87.84,83.76 447,0 0,222 -447,0 0,-222 z" />
    </clipPath>
    <clipPath
       id="clipPath5213"
       clipPathUnits="userSpaceOnUse">
      <path
         style="clip-rule:evenodd"
         inkscape:connector-curvature="0"
         id="path5215"
         d="m 87.84,83.76 447,0 0,222 -447,0 0,-222 z" />
    </clipPath>
    <clipPath
       id="clipPath5201"
       clipPathUnits="userSpaceOnUse">
      <path
         style="clip-rule:evenodd"
         inkscape:connector-curvature="0"
         id="path5203"
         d="m 87.84,83.76 447,0 0,222 -447,0 0,-222 z" />
    </clipPath>
    <clipPath
       id="clipPath5189"
       clipPathUnits="userSpaceOnUse">
      <path
         style="clip-rule:evenodd"
         inkscape:connector-curvature="0"
         id="path5191"
         d="m 87.84,83.76 447,0 0,222 -447,0 0,-222 z" />
    </clipPath>
    <clipPath
       id="clipPath5177"
       clipPathUnits="userSpaceOnUse">
      <path
         style="clip-rule:evenodd"
         inkscape:connector-curvature="0"
         id="path5179"
         d="m 87.84,83.76 447,0 0,222 -447,0 0,-222 z" />
    </clipPath>
  </defs>
  <sodipodi:namedview
     id="base"
     pagecolor="#ffffff"
     bordercolor="#666666"
     borderopacity="1.0"
     inkscape:pageopacity="0.0"
     inkscape:pageshadow="2"
     inkscape:zoom="1.4"
     inkscape:cx="330.57555"
     inkscape:cy="38.83125"
     inkscape:document-units="px"
     inkscape:current-layer="layer1"
     showgrid="false"
     fit-margin-top="0"
     fit-margin-left="0"
     fit-margin-right="0"
     fit-margin-bottom="0"
     inkscape:window-width="1600"
     inkscape:window-height="821"
     inkscape:window-x="1280"
     inkscape:window-y="24"
     inkscape:window-maximized="1" />
  <metadata
     id="metadata6558">
    <rdf:RDF>
      <cc:Work
         rdf:about="">
        <dc:format>image/svg+xml</dc:format>
        <dc:type
           rdf:resource="http://purl.org/dc/dcmitype/StillImage" />
        <dc:title></dc:title>
      </cc:Work>
    </rdf:RDF>
  </metadata>
  <g
     inkscape:label="Layer 1"
     inkscape:groupmode="layer"
     id="layer1"
     transform="translate(5.57555,-219.24524)">
    <path
       d="m 18.212162,389.57899 325.687498,0 m -325.687498,-31.65 325.687498,0 m -325.687498,-31.8 325.687498,0 m -325.687498,-31.8 325.687498,0 m -325.687498,-31.8 325.687498,0 m -325.687498,-31.7125 325.687498,0"
       style="fill:none;stroke:#000000;stroke-width:0.3125;stroke-linecap:butt;stroke-linejoin:round;stroke-miterlimit:10;stroke-dasharray:none;stroke-opacity:1"
       id="path5145"
       inkscape:connector-curvature="0" />
    <path
       d="m 18.212162,421.40399 325.699998,0 0,-190.5875 -325.699998,0 0,190.5875 z"
       style="fill:none;stroke:#000000;stroke-width:1.25;stroke-linecap:butt;stroke-linejoin:round;stroke-miterlimit:10;stroke-dasharray:none;stroke-opacity:1"
       id="path5147"
       inkscape:connector-curvature="0" />
    <path
       d="m 41.512162,399.17899 31.05,0 0,22.225 -31.05,0 0,-22.225 z m 108.449998,-82.65 31.05,0 0,104.875 -31.05,0 0,-104.875 z m 108.6,-54 31.05,0 0,158.875 -31.05,0 0,-158.875 z"
       style="fill:#000000;fill-opacity:1;fill-rule:nonzero;stroke:none"
       id="path5149"
       inkscape:connector-curvature="0" />
    <path
       d="m 41.512162,399.17899 31.05,0 0,22.225 -31.05,0 0,-22.225 z m 108.449998,-82.65 31.05,0 0,104.875 -31.05,0 0,-104.875 z m 108.6,-54 31.05,0 0,158.875 -31.05,0 0,-158.875 z"
       style="fill:none;stroke:#000000;stroke-width:1.25;stroke-linecap:butt;stroke-linejoin:round;stroke-miterlimit:10;stroke-dasharray:none;stroke-opacity:1"
       id="path5151"
       inkscape:connector-curvature="0" />
    <path
       d="m 72.487162,421.40399 31.018748,0 0,-92.11875 -31.018748,0 0,92.11875 z"
       style="fill:#ffffff;fill-opacity:1;fill-rule:evenodd;stroke:none"
       id="path5153"
       inkscape:connector-curvature="0" />
    <path
       d="m 72.487162,421.40399 31.018748,0 0,-92.11875 -31.018748,0 0,92.11875 z"
       style="fill:none;stroke:#000000;stroke-width:1.5625;stroke-linecap:butt;stroke-linejoin:round;stroke-miterlimit:10;stroke-dasharray:none;stroke-opacity:1"
       id="path5155"
       inkscape:connector-curvature="0" />
    <path
       d="m 181.04966,421.40399 31.01875,0 0,-131.825 -31.01875,0 0,131.825 z"
       style="fill:#ffffff;fill-opacity:1;fill-rule:evenodd;stroke:none"
       id="path5157"
       inkscape:connector-curvature="0" />
    <path
       d="m 181.04966,421.40399 31.01875,0 0,-131.825 -31.01875,0 0,131.825 z"
       style="fill:none;stroke:#000000;stroke-width:1.5625;stroke-linecap:butt;stroke-linejoin:round;stroke-miterlimit:10;stroke-dasharray:none;stroke-opacity:1"
       id="path5159"
       inkscape:connector-curvature="0" />
    <path
       d="m 289.62466,421.40399 31.01875,0 0,-79.4125 -31.01875,0 0,79.4125 z"
       style="fill:#ffffff;fill-opacity:1;fill-rule:evenodd;stroke:none"
       id="path5161"
       inkscape:connector-curvature="0" />
    <path
       d="m 289.62466,421.40399 31.01875,0 0,-79.4125 -31.01875,0 0,79.4125 z"
       style="fill:none;stroke:#000000;stroke-width:1.5625;stroke-linecap:butt;stroke-linejoin:round;stroke-miterlimit:10;stroke-dasharray:none;stroke-opacity:1"
       id="path5163"
       inkscape:connector-curvature="0" />
    <path
       d="m 18.212162,421.40399 0,-190.5875"
       style="fill:none;stroke:#000000;stroke-width:0.3125;stroke-linecap:butt;stroke-linejoin:round;stroke-miterlimit:10;stroke-dasharray:none;stroke-opacity:1"
       id="path5165"
       inkscape:connector-curvature="0" />
    <path
       d="m 15.037162,421.40399 3.175,0 m -3.175,-31.825 3.175,0 m -3.175,-31.65 3.175,0 m -3.175,-31.8 3.175,0 m -3.175,-31.8 3.175,0 m -3.175,-31.8 3.175,0 m -3.175,-31.7125 3.175,0"
       style="fill:none;stroke:#000000;stroke-width:0.3125;stroke-linecap:butt;stroke-linejoin:round;stroke-miterlimit:10;stroke-dasharray:none;stroke-opacity:1"
       id="path5167"
       inkscape:connector-curvature="0" />
    <path
       d="m 18.212162,421.40399 325.687498,0"
       style="fill:none;stroke:#000000;stroke-width:0.3125;stroke-linecap:butt;stroke-linejoin:round;stroke-miterlimit:10;stroke-dasharray:none;stroke-opacity:1"
       id="path5169"
       inkscape:connector-curvature="0" />
    <path
       d="m 18.212162,421.40399 0,3.5 m 108.499998,-3.5 0,3.5 m 108.6,-3.5 0,3.5 m 108.5875,-3.5 0,3.5"
       style="fill:none;stroke:#000000;stroke-width:0.3125;stroke-linecap:butt;stroke-linejoin:round;stroke-miterlimit:10;stroke-dasharray:none;stroke-opacity:1"
       id="path5171"
       inkscape:connector-curvature="0" />
    <g
       id="g5173"
       transform="matrix(1.25,0,0,-1.25,-123.18784,580.97899)">
      <g
         id="g5175"
         clip-path="url(#clipPath5177)">
        <text
           transform="matrix(1,0,0,-1,101.66,125.33)"
           style="font-variant:normal;font-weight:bold;font-size:8.03999996px;font-family:Calibri;-inkscape-font-specification:Calibri-Bold;writing-mode:lr-tb;fill:#000000;fill-opacity:1;fill-rule:nonzero;stroke:none"
           id="text5181">
          <tspan
             x="0"
             y="0"
             id="tspan5183">0</tspan>
        </text>
      </g>
    </g>
    <g
       id="g5185"
       transform="matrix(1.25,0,0,-1.25,-123.18784,580.97899)">
      <g
         id="g5187"
         clip-path="url(#clipPath5189)">
        <text
           transform="matrix(1,0,0,-1,97.608,150.74)"
           style="font-variant:normal;font-weight:bold;font-size:8.03999996px;font-family:Calibri;-inkscape-font-specification:Calibri-Bold;writing-mode:lr-tb;fill:#000000;fill-opacity:1;fill-rule:nonzero;stroke:none"
           id="text5193">
          <tspan
             x="0 4.0799999"
             y="0"
             sodipodi:role="line"
             id="tspan5195">20</tspan>
        </text>
      </g>
    </g>
    <g
       id="g5197"
       transform="matrix(1.25,0,0,-1.25,-123.18784,580.97899)">
      <g
         id="g5199"
         clip-path="url(#clipPath5201)">
        <text
           transform="matrix(1,0,0,-1,97.608,176.16)"
           style="font-variant:normal;font-weight:bold;font-size:8.03999996px;font-family:Calibri;-inkscape-font-specification:Calibri-Bold;writing-mode:lr-tb;fill:#000000;fill-opacity:1;fill-rule:nonzero;stroke:none"
           id="text5205">
          <tspan
             x="0 4.0799999"
             y="0"
             sodipodi:role="line"
             id="tspan5207">40</tspan>
        </text>
      </g>
    </g>
    <g
       id="g5209"
       transform="matrix(1.25,0,0,-1.25,-123.18784,580.97899)">
      <g
         id="g5211"
         clip-path="url(#clipPath5213)">
        <text
           transform="matrix(1,0,0,-1,97.608,201.58)"
           style="font-variant:normal;font-weight:bold;font-size:8.03999996px;font-family:Calibri;-inkscape-font-specification:Calibri-Bold;writing-mode:lr-tb;fill:#000000;fill-opacity:1;fill-rule:nonzero;stroke:none"
           id="text5217">
          <tspan
             x="0 4.0799999"
             y="0"
             sodipodi:role="line"
             id="tspan5219">60</tspan>
        </text>
      </g>
    </g>
    <g
       id="g5221"
       transform="matrix(1.25,0,0,-1.25,-123.18784,580.97899)">
      <g
         id="g5223"
         clip-path="url(#clipPath5225)">
        <text
           transform="matrix(1,0,0,-1,97.608,226.99)"
           style="font-variant:normal;font-weight:bold;font-size:8.03999996px;font-family:Calibri;-inkscape-font-specification:Calibri-Bold;writing-mode:lr-tb;fill:#000000;fill-opacity:1;fill-rule:nonzero;stroke:none"
           id="text5229">
          <tspan
             x="0 4.0799999"
             y="0"
             sodipodi:role="line"
             id="tspan5231">80</tspan>
        </text>
      </g>
    </g>
    <g
       id="g5233"
       transform="matrix(1.25,0,0,-1.25,-123.18784,580.97899)">
      <g
         id="g5235"
         clip-path="url(#clipPath5237)">
        <text
           transform="matrix(1,0,0,-1,93.552,252.41)"
           style="font-variant:normal;font-weight:bold;font-size:8.03999996px;font-family:Calibri;-inkscape-font-specification:Calibri-Bold;writing-mode:lr-tb;fill:#000000;fill-opacity:1;fill-rule:nonzero;stroke:none"
           id="text5241">
          <tspan
             x="0 4.0799999 8.1599998"
             y="0"
             sodipodi:role="line"
             id="tspan5243">100</tspan>
        </text>
      </g>
    </g>
    <g
       id="g5245"
       transform="matrix(1.25,0,0,-1.25,-123.18784,580.97899)">
      <g
         id="g5247"
         clip-path="url(#clipPath5249)">
        <text
           transform="matrix(1,0,0,-1,93.552,277.82)"
           style="font-variant:normal;font-weight:bold;font-size:8.03999996px;font-family:Calibri;-inkscape-font-specification:Calibri-Bold;writing-mode:lr-tb;fill:#000000;fill-opacity:1;fill-rule:nonzero;stroke:none"
           id="text5253">
          <tspan
             x="0 4.0799999 8.1599998"
             y="0"
             sodipodi:role="line"
             id="tspan5255">120</tspan>
        </text>
      </g>
    </g>
    <g
       id="g5257"
       transform="matrix(1.25,0,0,-1.25,-123.18784,580.97899)">
      <g
         id="g5259"
         clip-path="url(#clipPath5261)">
        <text
           transform="matrix(1,0,0,-1,143.14,113.57)"
           style="font-variant:normal;font-weight:bold;font-size:8.03999996px;font-family:PalatinoLinotype;-inkscape-font-specification:PalatinoLinotype-Bold;writing-mode:lr-tb;fill:#000000;fill-opacity:1;fill-rule:nonzero;stroke:none"
           id="text5265">
          <tspan
             x="0 3.9637201 7.5576 10.19472 12.22884 17.141279 21.105 23.742121"
             y="0"
             sodipodi:role="line"
             id="tspan5267">1st pair</tspan>
        </text>
      </g>
    </g>
    <g
       id="g5269"
       transform="matrix(1.25,0,0,-1.25,-123.18784,580.97899)">
      <g
         id="g5271"
         clip-path="url(#clipPath5273)">
        <text
           transform="matrix(1,0,0,-1,228.22,113.57)"
           style="font-variant:normal;font-weight:bold;font-size:8.03999996px;font-family:PalatinoLinotype;-inkscape-font-specification:PalatinoLinotype-Bold;writing-mode:lr-tb;fill:#000000;fill-opacity:1;fill-rule:nonzero;stroke:none"
           id="text5277">
          <tspan
             x="0 3.9637201 8.8761597 13.7886 15.72624 20.63868 24.6024 27.352079"
             y="0"
             sodipodi:role="line"
             id="tspan5279">2nd pair</tspan>
        </text>
      </g>
    </g>
    <g
       id="g5281"
       transform="matrix(1.25,0,0,-1.25,-123.18784,580.97899)">
      <g
         id="g5283"
         clip-path="url(#clipPath5285)">
        <text
           transform="matrix(1,0,0,-1,315.98,113.57)"
           style="font-variant:normal;font-weight:bold;font-size:8.03999996px;font-family:PalatinoLinotype;-inkscape-font-specification:PalatinoLinotype-Bold;writing-mode:lr-tb;fill:#000000;fill-opacity:1;fill-rule:nonzero;stroke:none"
           id="text5289">
          <tspan
             x="0 3.9637201 7.09128 12.00372 14.03784 18.837721 22.90596 25.543079"
             y="0"
             sodipodi:role="line"
             id="tspan5291">3rd pair</tspan>
        </text>
      </g>
    </g>
    <path
       d="m 354.39966,456.75149 188.1625,0 0,-237.35 -188.1625,0 0,237.35 z"
       style="fill:none;stroke:#000000;stroke-width:0.3125;stroke-linecap:butt;stroke-linejoin:round;stroke-miterlimit:10;stroke-dasharray:none;stroke-opacity:1"
       id="path5293"
       inkscape:connector-curvature="0" />
    <path
       d="m 364.58716,274.19149 7.591,0 0,-7.591 -7.591,0 0,7.591 z"
       style="fill:#000000;fill-opacity:1;fill-rule:evenodd;stroke:none"
       id="path5295"
       inkscape:connector-curvature="0" />
    <path
       d="m 364.58716,274.19149 7.591,0 0,-7.591 -7.591,0 0,7.591 z"
       style="fill:none;stroke:#000000;stroke-width:1.25;stroke-linecap:butt;stroke-linejoin:round;stroke-miterlimit:10;stroke-dasharray:none;stroke-opacity:1"
       id="path5297"
       inkscape:connector-curvature="0" />
    <g
       id="g5299"
       transform="matrix(1.25,0,0,-1.25,-123.18784,580.97899)">
      <g
         id="g5301"
         clip-path="url(#clipPath5303)">
        <text
           transform="matrix(1,0,0,-1,399.02,245.45)"
           style="font-variant:normal;font-weight:bold;font-size:9.96000004px;font-family:PalatinoLinotype;-inkscape-font-specification:PalatinoLinotype-Bold;writing-mode:lr-tb;fill:#000000;fill-opacity:1;fill-rule:nonzero;stroke:none"
           id="text5307">
          <tspan
             x="0 7.1911201 12.82848 16.67304 20.517599 25.5474 29.969641 33.336121 35.846039 40.26828 45.806042 49.152599 55.25808 58.495079 61.84164 67.379402 73.464958 77.90712 80.417038 83.763603 89.86908 92.378998 95.615997 101.72148 106.75128 109.2612 115.86468"
             y="0"
             sodipodi:role="line"
             id="tspan5309">Correct solutions in the TM</tspan>
        </text>
      </g>
    </g>
    <g
       id="g5311"
       transform="matrix(1.25,0,0,-1.25,-123.18784,580.97899)">
      <g
         id="g5313"
         clip-path="url(#clipPath5315)">
        <text
           transform="matrix(1,0,0,-1,399.02,231.96)"
           style="font-variant:normal;font-weight:bold;font-size:9.96000004px;font-family:PalatinoLinotype;-inkscape-font-specification:PalatinoLinotype-Bold;writing-mode:lr-tb;fill:#000000;fill-opacity:1;fill-rule:nonzero;stroke:none"
           id="text5319">
          <tspan
             x="0 6.1054802 11.13528 14.37228 19.402081 25.507561 30.537359 34.959599 39.899761 42.409679 45.756241 54.61068"
             y="0"
             sodipodi:role="line"
             id="tspan5321">database (%)</tspan>
        </text>
      </g>
    </g>
    <path
       d="m 364.58716,392.85399 7.591,0 0,-7.591 -7.591,0 0,7.591 z"
       style="fill:#ffffff;fill-opacity:1;fill-rule:evenodd;stroke:none"
       id="path5323"
       inkscape:connector-curvature="0" />
    <path
       d="m 364.58716,392.85399 7.591,0 0,-7.591 -7.591,0 0,7.591 z"
       style="fill:none;stroke:#000000;stroke-width:1.25;stroke-linecap:butt;stroke-linejoin:round;stroke-miterlimit:10;stroke-dasharray:none;stroke-opacity:1"
       id="path5325"
       inkscape:connector-curvature="0" />
    <g
       id="g5327"
       transform="matrix(1.25,0,0,-1.25,-123.18784,580.97899)">
      <g
         id="g5329"
         clip-path="url(#clipPath5331)">
        <text
           transform="matrix(1,0,0,-1,399.02,150.5)"
           style="font-variant:normal;font-weight:bold;font-size:9.96000004px;font-family:PalatinoLinotype;-inkscape-font-specification:PalatinoLinotype-Bold;writing-mode:lr-tb;fill:#000000;fill-opacity:1;fill-rule:nonzero;stroke:none"
           id="text5335">
          <tspan
             x="0 7.1911201 12.82848 16.67304 20.517599 25.5474 29.969641 33.336121 35.846039 40.26828 45.806042 49.152599 55.25808 58.495079 61.84164 67.379402 73.464958 77.90712 80.417038 83.763603 89.86908 92.378998 95.615997 101.72148 106.75128 109.2612 113.10576 118.13556"
             y="0"
             sodipodi:role="line"
             id="tspan5337">Correct solutions in the raw</tspan>
        </text>
      </g>
    </g>
    <g
       id="g5339"
       transform="matrix(1.25,0,0,-1.25,-123.18784,580.97899)">
      <g
         id="g5341"
         clip-path="url(#clipPath5343)">
        <text
           transform="matrix(1,0,0,-1,399.02,136.99)"
           style="font-variant:normal;font-weight:bold;font-size:9.96000004px;font-family:PalatinoLinotype;-inkscape-font-specification:PalatinoLinotype-Bold;writing-mode:lr-tb;fill:#000000;fill-opacity:1;fill-rule:nonzero;stroke:none"
           id="text5347">
          <tspan
             x="0 9.96 16.67304 19.182961 24.72072 30.80628 34.17276 40.27824 46.38372 49.62072 52.130638 55.4772 64.331642"
             y="0"
             sodipodi:role="line"
             id="tspan5349">MT output (%)</tspan>
        </text>
      </g>
    </g>
  </g>
</svg>
