<?xml version="1.0" encoding="UTF-8" standalone="no"?>
<!-- Created with Inkscape (http://www.inkscape.org/) -->

<svg
   xmlns:dc="http://purl.org/dc/elements/1.1/"
   xmlns:cc="http://creativecommons.org/ns#"
   xmlns:rdf="http://www.w3.org/1999/02/22-rdf-syntax-ns#"
   xmlns:svg="http://www.w3.org/2000/svg"
   xmlns="http://www.w3.org/2000/svg"
   xmlns:sodipodi="http://sodipodi.sourceforge.net/DTD/sodipodi-0.dtd"
   xmlns:inkscape="http://www.inkscape.org/namespaces/inkscape"
   width="54.542347mm"
   height="42.829884mm"
   viewBox="0 0 193.26028 151.75943"
   id="svg8546"
   version="1.1"
   inkscape:version="0.91 r13725"
   sodipodi:docname="figure2.svg">
  <defs
     id="defs8548">
    <clipPath
       id="clipPath6221"
       clipPathUnits="userSpaceOnUse">
      <path
         style="clip-rule:evenodd"
         inkscape:connector-curvature="0"
         id="path6223"
         d="m 41.88,278.88 167.64,0 0,136.2 -167.64,0 0,-136.2 z" />
    </clipPath>
    <clipPath
       id="clipPath6207"
       clipPathUnits="userSpaceOnUse">
      <path
         style="clip-rule:evenodd"
         inkscape:connector-curvature="0"
         id="path6209"
         d="m 41.88,278.88 167.64,0 0,136.2 -167.64,0 0,-136.2 z" />
    </clipPath>
    <clipPath
       id="clipPath6193"
       clipPathUnits="userSpaceOnUse">
      <path
         style="clip-rule:evenodd"
         inkscape:connector-curvature="0"
         id="path6195"
         d="m 41.88,278.88 167.64,0 0,136.2 -167.64,0 0,-136.2 z" />
    </clipPath>
    <clipPath
       id="clipPath6179"
       clipPathUnits="userSpaceOnUse">
      <path
         style="clip-rule:evenodd"
         inkscape:connector-curvature="0"
         id="path6181"
         d="m 41.88,278.88 167.64,0 0,136.2 -167.64,0 0,-136.2 z" />
    </clipPath>
    <clipPath
       id="clipPath6165"
       clipPathUnits="userSpaceOnUse">
      <path
         style="clip-rule:evenodd"
         inkscape:connector-curvature="0"
         id="path6167"
         d="m 41.88,278.88 167.64,0 0,136.2 -167.64,0 0,-136.2 z" />
    </clipPath>
    <clipPath
       id="clipPath6153"
       clipPathUnits="userSpaceOnUse">
      <path
         style="clip-rule:evenodd"
         inkscape:connector-curvature="0"
         id="path6155"
         d="m 41.88,278.88 167.64,0 0,136.2 -167.64,0 0,-136.2 z" />
    </clipPath>
    <clipPath
       id="clipPath6141"
       clipPathUnits="userSpaceOnUse">
      <path
         style="clip-rule:evenodd"
         inkscape:connector-curvature="0"
         id="path6143"
         d="m 41.88,278.88 167.64,0 0,136.2 -167.64,0 0,-136.2 z" />
    </clipPath>
    <clipPath
       id="clipPath6129"
       clipPathUnits="userSpaceOnUse">
      <path
         style="clip-rule:evenodd"
         inkscape:connector-curvature="0"
         id="path6131"
         d="m 41.88,278.88 167.64,0 0,136.2 -167.64,0 0,-136.2 z" />
    </clipPath>
    <clipPath
       id="clipPath6117"
       clipPathUnits="userSpaceOnUse">
      <path
         style="clip-rule:evenodd"
         inkscape:connector-curvature="0"
         id="path6119"
         d="m 41.88,278.88 167.64,0 0,136.2 -167.64,0 0,-136.2 z" />
    </clipPath>
    <clipPath
       id="clipPath6105"
       clipPathUnits="userSpaceOnUse">
      <path
         style="clip-rule:evenodd"
         inkscape:connector-curvature="0"
         id="path6107"
         d="m 41.88,278.88 167.64,0 0,136.2 -167.64,0 0,-136.2 z" />
    </clipPath>
    <clipPath
       id="clipPath6093"
       clipPathUnits="userSpaceOnUse">
      <path
         style="clip-rule:evenodd"
         inkscape:connector-curvature="0"
         id="path6095"
         d="m 41.88,278.88 167.64,0 0,136.2 -167.64,0 0,-136.2 z" />
    </clipPath>
    <clipPath
       id="clipPath6081"
       clipPathUnits="userSpaceOnUse">
      <path
         style="clip-rule:evenodd"
         inkscape:connector-curvature="0"
         id="path6083"
         d="m 41.88,278.88 167.64,0 0,136.2 -167.64,0 0,-136.2 z" />
    </clipPath>
    <clipPath
       id="clipPath6069"
       clipPathUnits="userSpaceOnUse">
      <path
         style="clip-rule:evenodd"
         inkscape:connector-curvature="0"
         id="path6071"
         d="m 41.88,278.88 167.64,0 0,136.2 -167.64,0 0,-136.2 z" />
    </clipPath>
    <clipPath
       id="clipPath6057"
       clipPathUnits="userSpaceOnUse">
      <path
         style="clip-rule:evenodd"
         inkscape:connector-curvature="0"
         id="path6059"
         d="m 41.88,278.88 167.64,0 0,136.2 -167.64,0 0,-136.2 z" />
    </clipPath>
    <clipPath
       id="clipPath6045"
       clipPathUnits="userSpaceOnUse">
      <path
         style="clip-rule:evenodd"
         inkscape:connector-curvature="0"
         id="path6047"
         d="m 41.88,278.88 167.64,0 0,136.2 -167.64,0 0,-136.2 z" />
    </clipPath>
  </defs>
  <sodipodi:namedview
     id="base"
     pagecolor="#ffffff"
     bordercolor="#666666"
     borderopacity="1.0"
     inkscape:pageopacity="0.0"
     inkscape:pageshadow="2"
     inkscape:zoom="1.979899"
     inkscape:cx="215.91586"
     inkscape:cy="42.203152"
     inkscape:document-units="px"
     inkscape:current-layer="layer1"
     showgrid="false"
     fit-margin-top="0"
     fit-margin-left="0"
     fit-margin-right="0"
     fit-margin-bottom="0"
     inkscape:window-width="1600"
     inkscape:window-height="821"
     inkscape:window-x="1280"
     inkscape:window-y="24"
     inkscape:window-maximized="1" />
  <metadata
     id="metadata8551">
    <rdf:RDF>
      <cc:Work
         rdf:about="">
        <dc:format>image/svg+xml</dc:format>
        <dc:type
           rdf:resource="http://purl.org/dc/dcmitype/StillImage" />
        <dc:title></dc:title>
      </cc:Work>
    </rdf:RDF>
  </metadata>
  <g
     inkscape:label="Layer 1"
     inkscape:groupmode="layer"
     id="layer1"
     transform="translate(-109.08414,-362.19678)">
    <path
       d="m 157.70913,362.19678 0,122.0375 m 34.055,-122.0375 0,122.0375 m 33.9,-122.0375 0,122.0375 m 34.05,-122.0375 0,122.0375 m 33.9625,-122.0375 0,122.0375"
       style="fill:none;stroke:#f2f2f2;stroke-width:0.69328749;stroke-linecap:butt;stroke-linejoin:round;stroke-miterlimit:10;stroke-dasharray:none;stroke-opacity:1"
       id="path6029"
       inkscape:connector-curvature="0" />
    <path
       d="m 176.01413,482.14678 -52.2675,0 0,-5.1 52.2675,0 0,5.1 z m 0,-24.3 -52.2675,0 0,-5.1 52.2675,0 0,5.1 z m 65.4,-24.45 -117.6675,0 0,-5.1 117.6675,0 0,5.1 z m -26.1,-24.45 -91.5675,0 0,-5.1 91.5675,0 0,5.1 z m 65.25,-24.3125 -156.8175,0 0,-5.1 156.8175,0 0,5.1 z"
       style="fill:#4f81bd;fill-opacity:0.70196001;fill-rule:nonzero;stroke:none"
       id="path6031"
       inkscape:connector-curvature="0" />
    <path
       d="m 293.61413,477.04678 -169.8675,0 0,-4.95 169.8675,0 0,4.95 z m -72.75,-24.3 -97.1175,0 0,-5.1 97.1175,0 0,5.1 z m 4.8,-24.45 -101.9175,0 0,-5.1 101.9175,0 0,5.1 z m 51,-24.45 -152.9175,0 0,-5.1 152.9175,0 0,5.1 z m -53.85,-24.3125 -99.0675,0 0,-5.1 99.0675,0 0,5.1 z"
       style="fill:#c0504d;fill-opacity:0.70196001;fill-rule:nonzero;stroke:none"
       id="path6033"
       inkscape:connector-curvature="0" />
    <path
       d="m 276.66413,472.09678 -152.9175,0 0,-5.1 152.9175,0 0,5.1 z m -51,-24.45 -101.9175,0 0,-5.1 101.9175,0 0,5.1 z m -4.8,-24.45 -97.1175,0 0,-5.1 97.1175,0 0,5.1 z m 48.45,-24.45 -145.5675,0 0,-4.95 145.5675,0 0,4.95 z m -88.95,-24.3125 -56.6175,0 0,-5.1 56.6175,0 0,5.1 z"
       style="fill:#9bbb59;fill-opacity:0.70196001;fill-rule:nonzero;stroke:none"
       id="path6035"
       inkscape:connector-curvature="0" />
    <path
       d="m 237.06413,466.99678 -113.3175,0 0,-5.1 113.3175,0 0,5.1 z m -18.9,-24.45 -94.4175,0 0,-5.1 94.4175,0 0,5.1 z m -37.8,-24.45 -56.6175,0 0,-5.1 56.6175,0 0,5.1 z m 70.8,-24.3 -127.4175,0 0,-5.1125 127.4175,0 0,5.1125 z m -63.75,-24.4625 -63.6675,0 0,-5.1 63.6675,0 0,5.1 z"
       style="fill:#8064a2;fill-opacity:0.70196001;fill-rule:nonzero;stroke:none"
       id="path6037"
       inkscape:connector-curvature="0" />
    <path
       d="m 123.74663,484.23428 0,-122.0375"
       style="fill:none;stroke:#bfbfbf;stroke-width:1.15547502;stroke-linecap:butt;stroke-linejoin:round;stroke-miterlimit:10;stroke-dasharray:none;stroke-opacity:1"
       id="path6039"
       inkscape:connector-curvature="0" />
    <g
       id="g6041"
       transform="matrix(1.25,0,0,-1.25,50.451632,870.90928)">
      <g
         id="g6043"
         clip-path="url(#clipPath6045)">
        <text
           transform="matrix(1,0,0,-1,54.6,300.22)"
           style="font-variant:normal;font-weight:normal;font-size:5.88000011px;font-family:'Times New Roman';-inkscape-font-specification:TimesNewRomanPSMT;writing-mode:lr-tb;fill:#595959;fill-opacity:1;fill-rule:nonzero;stroke:none"
           id="text6049">
          <tspan
             x="0 3.1199999"
             y="0"
             sodipodi:role="line"
             id="tspan6051">0%</tspan>
        </text>
      </g>
    </g>
    <g
       id="g6053"
       transform="matrix(1.25,0,0,-1.25,50.451632,870.90928)">
      <g
         id="g6055"
         clip-path="url(#clipPath6057)">
        <text
           transform="matrix(1,0,0,-1,80.232,300.22)"
           style="font-variant:normal;font-weight:normal;font-size:5.88000011px;font-family:'Times New Roman';-inkscape-font-specification:TimesNewRomanPSMT;writing-mode:lr-tb;fill:#595959;fill-opacity:1;fill-rule:nonzero;stroke:none"
           id="text6061">
          <tspan
             x="0 3.1199999 6.2399998"
             y="0"
             sodipodi:role="line"
             id="tspan6063">20%</tspan>
        </text>
      </g>
    </g>
    <g
       id="g6065"
       transform="matrix(1.25,0,0,-1.25,50.451632,870.90928)">
      <g
         id="g6067"
         clip-path="url(#clipPath6069)">
        <text
           transform="matrix(1,0,0,-1,107.42,300.22)"
           style="font-variant:normal;font-weight:normal;font-size:5.88000011px;font-family:'Times New Roman';-inkscape-font-specification:TimesNewRomanPSMT;writing-mode:lr-tb;fill:#595959;fill-opacity:1;fill-rule:nonzero;stroke:none"
           id="text6073">
          <tspan
             x="0 3.1199999 6.2399998"
             y="0"
             sodipodi:role="line"
             id="tspan6075">40%</tspan>
        </text>
      </g>
    </g>
    <g
       id="g6077"
       transform="matrix(1.25,0,0,-1.25,50.451632,870.90928)">
      <g
         id="g6079"
         clip-path="url(#clipPath6081)">
        <text
           transform="matrix(1,0,0,-1,134.62,300.22)"
           style="font-variant:normal;font-weight:normal;font-size:5.88000011px;font-family:'Times New Roman';-inkscape-font-specification:TimesNewRomanPSMT;writing-mode:lr-tb;fill:#595959;fill-opacity:1;fill-rule:nonzero;stroke:none"
           id="text6085">
          <tspan
             x="0 3.1199999 6.2399998"
             y="0"
             sodipodi:role="line"
             id="tspan6087">60%</tspan>
        </text>
      </g>
    </g>
    <g
       id="g6089"
       transform="matrix(1.25,0,0,-1.25,50.451632,870.90928)">
      <g
         id="g6091"
         clip-path="url(#clipPath6093)">
        <text
           transform="matrix(1,0,0,-1,161.83,300.22)"
           style="font-variant:normal;font-weight:normal;font-size:5.88000011px;font-family:'Times New Roman';-inkscape-font-specification:TimesNewRomanPSMT;writing-mode:lr-tb;fill:#595959;fill-opacity:1;fill-rule:nonzero;stroke:none"
           id="text6097">
          <tspan
             x="0 3.1199999 6.2399998"
             y="0"
             sodipodi:role="line"
             id="tspan6099">80%</tspan>
        </text>
      </g>
    </g>
    <g
       id="g6101"
       transform="matrix(1.25,0,0,-1.25,50.451632,870.90928)">
      <g
         id="g6103"
         clip-path="url(#clipPath6105)">
        <text
           transform="matrix(1,0,0,-1,187.46,300.22)"
           style="font-variant:normal;font-weight:normal;font-size:5.88000011px;font-family:'Times New Roman';-inkscape-font-specification:TimesNewRomanPSMT;writing-mode:lr-tb;fill:#595959;fill-opacity:1;fill-rule:nonzero;stroke:none"
           id="text6109">
          <tspan
             x="0 3.1199999 6.2399998 9.3599997"
             y="0"
             sodipodi:role="line"
             id="tspan6111">100%</tspan>
        </text>
      </g>
    </g>
    <g
       id="g6113"
       transform="matrix(1.25,0,0,-1.25,50.451632,870.90928)">
      <g
         id="g6115"
         clip-path="url(#clipPath6117)">
        <text
           transform="matrix(1,0,0,-1,46.728,317.06)"
           style="font-variant:normal;font-weight:normal;font-size:5.88000011px;font-family:'Times New Roman';-inkscape-font-specification:TimesNewRomanPSMT;writing-mode:lr-tb;fill:#595959;fill-opacity:1;fill-rule:nonzero;stroke:none"
           id="text6121">
          <tspan
             x="0 3.83968"
             y="0"
             sodipodi:role="line"
             id="tspan6123">T1</tspan>
        </text>
      </g>
    </g>
    <g
       id="g6125"
       transform="matrix(1.25,0,0,-1.25,50.451632,870.90928)">
      <g
         id="g6127"
         clip-path="url(#clipPath6129)">
        <text
           transform="matrix(1,0,0,-1,46.728,336.6)"
           style="font-variant:normal;font-weight:normal;font-size:5.88000011px;font-family:'Times New Roman';-inkscape-font-specification:TimesNewRomanPSMT;writing-mode:lr-tb;fill:#595959;fill-opacity:1;fill-rule:nonzero;stroke:none"
           id="text6133">
          <tspan
             x="0 3.83968"
             y="0"
             sodipodi:role="line"
             id="tspan6135">T2</tspan>
        </text>
      </g>
    </g>
    <g
       id="g6137"
       transform="matrix(1.25,0,0,-1.25,50.451632,870.90928)">
      <g
         id="g6139"
         clip-path="url(#clipPath6141)">
        <text
           transform="matrix(1,0,0,-1,46.728,356.14)"
           style="font-variant:normal;font-weight:normal;font-size:5.88000011px;font-family:'Times New Roman';-inkscape-font-specification:TimesNewRomanPSMT;writing-mode:lr-tb;fill:#595959;fill-opacity:1;fill-rule:nonzero;stroke:none"
           id="text6145">
          <tspan
             x="0 3.83968"
             y="0"
             sodipodi:role="line"
             id="tspan6147">T3</tspan>
        </text>
      </g>
    </g>
    <g
       id="g6149"
       transform="matrix(1.25,0,0,-1.25,50.451632,870.90928)">
      <g
         id="g6151"
         clip-path="url(#clipPath6153)">
        <text
           transform="matrix(1,0,0,-1,46.728,375.65)"
           style="font-variant:normal;font-weight:normal;font-size:5.88000011px;font-family:'Times New Roman';-inkscape-font-specification:TimesNewRomanPSMT;writing-mode:lr-tb;fill:#595959;fill-opacity:1;fill-rule:nonzero;stroke:none"
           id="text6157">
          <tspan
             x="0 3.83968"
             y="0"
             sodipodi:role="line"
             id="tspan6159">T4</tspan>
        </text>
      </g>
    </g>
    <g
       id="g6161"
       transform="matrix(1.25,0,0,-1.25,50.451632,870.90928)">
      <g
         id="g6163"
         clip-path="url(#clipPath6165)">
        <text
           transform="matrix(1,0,0,-1,46.728,395.18)"
           style="font-variant:normal;font-weight:normal;font-size:5.88000011px;font-family:'Times New Roman';-inkscape-font-specification:TimesNewRomanPSMT;writing-mode:lr-tb;fill:#595959;fill-opacity:1;fill-rule:nonzero;stroke:none"
           id="text6169">
          <tspan
             x="0 3.83968"
             y="0"
             sodipodi:role="line"
             id="tspan6171">T5</tspan>
        </text>
      </g>
    </g>
    <path
       d="m 135.03163,511.80928 3.68537,0 0,-3.6855 -3.68537,0 0,3.6855 z"
       style="fill:#8064a2;fill-opacity:0.70196001;fill-rule:evenodd;stroke:none"
       id="path6173"
       inkscape:connector-curvature="0" />
    <g
       id="g6175"
       transform="matrix(1.25,0,0,-1.25,50.451632,870.90928)">
      <g
         id="g6177"
         clip-path="url(#clipPath6179)">
        <text
           transform="matrix(1,0,0,-1,71.832,286.82)"
           style="font-variant:normal;font-weight:normal;font-size:5.88000011px;font-family:'Times New Roman';-inkscape-font-specification:TimesNewRomanPSMT;writing-mode:lr-tb;fill:#595959;fill-opacity:1;fill-rule:nonzero;stroke:none"
           id="text6183">
          <tspan
             x="0 4.3159199 6.2386799 9.2315998 12.1128 15.10572 16.54632"
             y="0"
             sodipodi:role="line"
             id="tspan6185">Group P</tspan>
        </text>
      </g>
    </g>
    <path
       d="m 172.62913,511.80928 3.68537,0 0,-3.6855 -3.68537,0 0,3.6855 z"
       style="fill:#9bbb59;fill-opacity:0.70196001;fill-rule:evenodd;stroke:none"
       id="path6187"
       inkscape:connector-curvature="0" />
    <g
       id="g6189"
       transform="matrix(1.25,0,0,-1.25,50.451632,870.90928)">
      <g
         id="g6191"
         clip-path="url(#clipPath6193)">
        <text
           transform="matrix(1,0,0,-1,101.9,286.82)"
           style="font-variant:normal;font-weight:normal;font-size:5.88000011px;font-family:'Times New Roman';-inkscape-font-specification:TimesNewRomanPSMT;writing-mode:lr-tb;fill:#595959;fill-opacity:1;fill-rule:nonzero;stroke:none"
           id="text6197">
          <tspan
             x="0 4.3159199 6.2386799 9.2315998 12.1128 15.10572 16.54632 18.580799"
             y="0"
             sodipodi:role="line"
             id="tspan6199">Group I2</tspan>
        </text>
      </g>
    </g>
    <path
       d="m 212.27663,511.80928 3.68537,0 0,-3.6855 -3.68537,0 0,3.6855 z"
       style="fill:#c0504d;fill-opacity:0.70196001;fill-rule:evenodd;stroke:none"
       id="path6201"
       inkscape:connector-curvature="0" />
    <g
       id="g6203"
       transform="matrix(1.25,0,0,-1.25,50.451632,870.90928)">
      <g
         id="g6205"
         clip-path="url(#clipPath6207)">
        <text
           transform="matrix(1,0,0,-1,133.63,286.82)"
           style="font-variant:normal;font-weight:normal;font-size:5.88000011px;font-family:'Times New Roman';-inkscape-font-specification:TimesNewRomanPSMT;writing-mode:lr-tb;fill:#595959;fill-opacity:1;fill-rule:nonzero;stroke:none"
           id="text6211">
          <tspan
             x="0 4.3159199 6.2386799 9.2315998 12.1128 15.10572 16.54632 18.580799"
             y="0"
             sodipodi:role="line"
             id="tspan6213">Group I1</tspan>
        </text>
      </g>
    </g>
    <path
       d="m 251.91413,511.80928 3.68537,0 0,-3.6855 -3.68537,0 0,3.6855 z"
       style="fill:#4f81bd;fill-opacity:0.70196001;fill-rule:evenodd;stroke:none"
       id="path6215"
       inkscape:connector-curvature="0" />
    <g
       id="g6217"
       transform="matrix(1.25,0,0,-1.25,50.451632,870.90928)">
      <g
         id="g6219"
         clip-path="url(#clipPath6221)">
        <text
           transform="matrix(1,0,0,-1,165.36,286.82)"
           style="font-variant:normal;font-weight:normal;font-size:5.88000011px;font-family:'Times New Roman';-inkscape-font-specification:TimesNewRomanPSMT;writing-mode:lr-tb;fill:#595959;fill-opacity:1;fill-rule:nonzero;stroke:none"
           id="text6225">
          <tspan
             x="0 4.3159199 6.2386799 9.2315998 12.1128 15.10572 16.54632"
             y="0"
             sodipodi:role="line"
             id="tspan6227">Group N</tspan>
        </text>
      </g>
    </g>
  </g>
</svg>
