<?xml version="1.0" encoding="UTF-8" standalone="no"?>
<!-- Created with Inkscape (http://www.inkscape.org/) -->

<svg
   xmlns:dc="http://purl.org/dc/elements/1.1/"
   xmlns:cc="http://creativecommons.org/ns#"
   xmlns:rdf="http://www.w3.org/1999/02/22-rdf-syntax-ns#"
   xmlns:svg="http://www.w3.org/2000/svg"
   xmlns="http://www.w3.org/2000/svg"
   xmlns:sodipodi="http://sodipodi.sourceforge.net/DTD/sodipodi-0.dtd"
   xmlns:inkscape="http://www.inkscape.org/namespaces/inkscape"
   width="52.046585mm"
   height="50.598747mm"
   viewBox="0 0 184.41703 179.2869"
   id="svg11223"
   version="1.1"
   inkscape:version="0.91 r13725"
   sodipodi:docname="figure5.svg">
  <defs
     id="defs11225">
    <clipPath
       id="clipPath9528"
       clipPathUnits="userSpaceOnUse">
      <path
         style="clip-rule:evenodd"
         inkscape:connector-curvature="0"
         id="path9530"
         d="m 41.88,462.96 167.64,0 0,153 -167.64,0 0,-153 z" />
    </clipPath>
    <clipPath
       id="clipPath9516"
       clipPathUnits="userSpaceOnUse">
      <path
         style="clip-rule:evenodd"
         inkscape:connector-curvature="0"
         id="path9518"
         d="m 41.88,462.96 167.64,0 0,153 -167.64,0 0,-153 z" />
    </clipPath>
    <clipPath
       id="clipPath9504"
       clipPathUnits="userSpaceOnUse">
      <path
         style="clip-rule:evenodd"
         inkscape:connector-curvature="0"
         id="path9506"
         d="m 41.88,462.96 167.64,0 0,153 -167.64,0 0,-153 z" />
    </clipPath>
    <clipPath
       id="clipPath9492"
       clipPathUnits="userSpaceOnUse">
      <path
         style="clip-rule:evenodd"
         inkscape:connector-curvature="0"
         id="path9494"
         d="m 41.88,462.96 167.64,0 0,153 -167.64,0 0,-153 z" />
    </clipPath>
    <clipPath
       id="clipPath9480"
       clipPathUnits="userSpaceOnUse">
      <path
         style="clip-rule:evenodd"
         inkscape:connector-curvature="0"
         id="path9482"
         d="m 41.88,462.96 167.64,0 0,153 -167.64,0 0,-153 z" />
    </clipPath>
    <clipPath
       id="clipPath9468"
       clipPathUnits="userSpaceOnUse">
      <path
         style="clip-rule:evenodd"
         inkscape:connector-curvature="0"
         id="path9470"
         d="m 41.88,462.96 167.64,0 0,153 -167.64,0 0,-153 z" />
    </clipPath>
    <clipPath
       id="clipPath9456"
       clipPathUnits="userSpaceOnUse">
      <path
         style="clip-rule:evenodd"
         inkscape:connector-curvature="0"
         id="path9458"
         d="m 41.88,462.96 167.64,0 0,153 -167.64,0 0,-153 z" />
    </clipPath>
    <clipPath
       id="clipPath9444"
       clipPathUnits="userSpaceOnUse">
      <path
         style="clip-rule:evenodd"
         inkscape:connector-curvature="0"
         id="path9446"
         d="m 41.88,462.96 167.64,0 0,153 -167.64,0 0,-153 z" />
    </clipPath>
    <clipPath
       id="clipPath9432"
       clipPathUnits="userSpaceOnUse">
      <path
         style="clip-rule:evenodd"
         inkscape:connector-curvature="0"
         id="path9434"
         d="m 41.88,462.96 167.64,0 0,153 -167.64,0 0,-153 z" />
    </clipPath>
    <clipPath
       id="clipPath9420"
       clipPathUnits="userSpaceOnUse">
      <path
         style="clip-rule:evenodd"
         inkscape:connector-curvature="0"
         id="path9422"
         d="m 41.88,462.96 167.64,0 0,153 -167.64,0 0,-153 z" />
    </clipPath>
    <clipPath
       id="clipPath9408"
       clipPathUnits="userSpaceOnUse">
      <path
         style="clip-rule:evenodd"
         inkscape:connector-curvature="0"
         id="path9410"
         d="m 41.88,462.96 167.64,0 0,153 -167.64,0 0,-153 z" />
    </clipPath>
    <clipPath
       id="clipPath9396"
       clipPathUnits="userSpaceOnUse">
      <path
         style="clip-rule:evenodd"
         inkscape:connector-curvature="0"
         id="path9398"
         d="m 41.88,462.96 167.64,0 0,153 -167.64,0 0,-153 z" />
    </clipPath>
    <clipPath
       id="clipPath9384"
       clipPathUnits="userSpaceOnUse">
      <path
         style="clip-rule:evenodd"
         inkscape:connector-curvature="0"
         id="path9386"
         d="m 41.88,462.96 167.64,0 0,153 -167.64,0 0,-153 z" />
    </clipPath>
    <clipPath
       id="clipPath9372"
       clipPathUnits="userSpaceOnUse">
      <path
         style="clip-rule:evenodd"
         inkscape:connector-curvature="0"
         id="path9374"
         d="m 41.88,462.96 167.64,0 0,153 -167.64,0 0,-153 z" />
    </clipPath>
    <clipPath
       id="clipPath9356"
       clipPathUnits="userSpaceOnUse">
      <path
         style="clip-rule:evenodd"
         inkscape:connector-curvature="0"
         id="path9358"
         d="m 41.88,462.96 167.64,0 0,153 -167.64,0 0,-153 z" />
    </clipPath>
    <clipPath
       id="clipPath9344"
       clipPathUnits="userSpaceOnUse">
      <path
         style="clip-rule:evenodd"
         inkscape:connector-curvature="0"
         id="path9346"
         d="m 41.88,462.96 167.64,0 0,153 -167.64,0 0,-153 z" />
    </clipPath>
    <clipPath
       id="clipPath9332"
       clipPathUnits="userSpaceOnUse">
      <path
         style="clip-rule:evenodd"
         inkscape:connector-curvature="0"
         id="path9334"
         d="m 41.88,462.96 167.64,0 0,153 -167.64,0 0,-153 z" />
    </clipPath>
    <clipPath
       id="clipPath9320"
       clipPathUnits="userSpaceOnUse">
      <path
         style="clip-rule:evenodd"
         inkscape:connector-curvature="0"
         id="path9322"
         d="m 41.88,462.96 167.64,0 0,153 -167.64,0 0,-153 z" />
    </clipPath>
    <clipPath
       id="clipPath9304"
       clipPathUnits="userSpaceOnUse">
      <path
         style="clip-rule:evenodd"
         inkscape:connector-curvature="0"
         id="path9306"
         d="m 41.88,462.96 167.64,0 0,153 -167.64,0 0,-153 z" />
    </clipPath>
    <clipPath
       id="clipPath9292"
       clipPathUnits="userSpaceOnUse">
      <path
         style="clip-rule:evenodd"
         inkscape:connector-curvature="0"
         id="path9294"
         d="m 41.88,462.96 167.64,0 0,153 -167.64,0 0,-153 z" />
    </clipPath>
    <clipPath
       id="clipPath9280"
       clipPathUnits="userSpaceOnUse">
      <path
         style="clip-rule:evenodd"
         inkscape:connector-curvature="0"
         id="path9282"
         d="m 41.88,462.96 167.64,0 0,153 -167.64,0 0,-153 z" />
    </clipPath>
    <clipPath
       id="clipPath9264"
       clipPathUnits="userSpaceOnUse">
      <path
         style="clip-rule:evenodd"
         inkscape:connector-curvature="0"
         id="path9266"
         d="m 41.88,462.96 167.64,0 0,153 -167.64,0 0,-153 z" />
    </clipPath>
    <clipPath
       id="clipPath9252"
       clipPathUnits="userSpaceOnUse">
      <path
         style="clip-rule:evenodd"
         inkscape:connector-curvature="0"
         id="path9254"
         d="m 41.88,462.96 167.64,0 0,153 -167.64,0 0,-153 z" />
    </clipPath>
    <clipPath
       id="clipPath9240"
       clipPathUnits="userSpaceOnUse">
      <path
         style="clip-rule:evenodd"
         inkscape:connector-curvature="0"
         id="path9242"
         d="m 41.88,462.96 167.64,0 0,153 -167.64,0 0,-153 z" />
    </clipPath>
    <clipPath
       id="clipPath9228"
       clipPathUnits="userSpaceOnUse">
      <path
         style="clip-rule:evenodd"
         inkscape:connector-curvature="0"
         id="path9230"
         d="m 41.88,462.96 167.64,0 0,153 -167.64,0 0,-153 z" />
    </clipPath>
    <clipPath
       id="clipPath9212"
       clipPathUnits="userSpaceOnUse">
      <path
         style="clip-rule:evenodd"
         inkscape:connector-curvature="0"
         id="path9214"
         d="m 41.88,462.96 167.64,0 0,153 -167.64,0 0,-153 z" />
    </clipPath>
    <clipPath
       id="clipPath9200"
       clipPathUnits="userSpaceOnUse">
      <path
         style="clip-rule:evenodd"
         inkscape:connector-curvature="0"
         id="path9202"
         d="m 41.88,462.96 167.64,0 0,153 -167.64,0 0,-153 z" />
    </clipPath>
    <clipPath
       id="clipPath9188"
       clipPathUnits="userSpaceOnUse">
      <path
         style="clip-rule:evenodd"
         inkscape:connector-curvature="0"
         id="path9190"
         d="m 41.88,462.96 167.64,0 0,153 -167.64,0 0,-153 z" />
    </clipPath>
    <clipPath
       id="clipPath9176"
       clipPathUnits="userSpaceOnUse">
      <path
         style="clip-rule:evenodd"
         inkscape:connector-curvature="0"
         id="path9178"
         d="m 41.88,462.96 167.64,0 0,153 -167.64,0 0,-153 z" />
    </clipPath>
    <clipPath
       id="clipPath9164"
       clipPathUnits="userSpaceOnUse">
      <path
         style="clip-rule:evenodd"
         inkscape:connector-curvature="0"
         id="path9166"
         d="m 41.88,462.96 167.64,0 0,153 -167.64,0 0,-153 z" />
    </clipPath>
  </defs>
  <sodipodi:namedview
     id="base"
     pagecolor="#ffffff"
     bordercolor="#666666"
     borderopacity="1.0"
     inkscape:pageopacity="0.0"
     inkscape:pageshadow="2"
     inkscape:zoom="2.8"
     inkscape:cx="91.976974"
     inkscape:cy="83.929168"
     inkscape:document-units="px"
     inkscape:current-layer="layer1"
     showgrid="false"
     fit-margin-top="0"
     fit-margin-left="0"
     fit-margin-right="0"
     fit-margin-bottom="0"
     inkscape:window-width="1600"
     inkscape:window-height="821"
     inkscape:window-x="1280"
     inkscape:window-y="24"
     inkscape:window-maximized="1" />
  <metadata
     id="metadata11228">
    <rdf:RDF>
      <cc:Work
         rdf:about="">
        <dc:format>image/svg+xml</dc:format>
        <dc:type
           rdf:resource="http://purl.org/dc/dcmitype/StillImage" />
        <dc:title></dc:title>
      </cc:Work>
    </rdf:RDF>
  </metadata>
  <g
     inkscape:label="Layer 1"
     inkscape:groupmode="layer"
     id="layer1"
     transform="translate(-233.02303,-308.43304)">
    <path
       d="m 270.41842,411.9733 146.675,0 m -146.675,-11.25 146.675,0 m -146.675,-11.25 146.675,0 m -146.675,-11.1 146.675,0 m -146.675,-11.25 146.675,0 m -146.675,-11.25 146.675,0 m -146.675,-11.25 146.675,0 m -146.675,-11.25 146.675,0 m -146.675,-11.25 146.675,0 m -146.675,-11.2125 146.675,0"
       style="fill:none;stroke:#f2f2f2;stroke-width:0.69328749;stroke-linecap:butt;stroke-linejoin:round;stroke-miterlimit:10;stroke-dasharray:none;stroke-opacity:1"
       id="path9144"
       inkscape:connector-curvature="0" />
    <path
       d="m 274.00092,371.3233 9.15125,0 0,51.925 -9.15125,0 0,-51.925 z m 36.755,0 9,0 0,51.925 -9,0 0,-51.925 z m 73.34999,43.2 9,0 0,8.725 -9,0 0,-8.725 z"
       style="fill:#4f81bd;fill-opacity:0.70196001;fill-rule:nonzero;stroke:none"
       id="path9146"
       inkscape:connector-curvature="0" />
    <path
       d="m 280.90217,407.1733 9,0 0,16.075 -9,0 0,-16.075 z m 36.60375,-64.2 9,0 0,80.275 -9,0 0,-80.275 z"
       style="fill:#c0504d;fill-opacity:0.70196001;fill-rule:nonzero;stroke:none"
       id="path9148"
       inkscape:connector-curvature="0" />
    <path
       d="m 287.65218,411.9733 9.00375,0 0,11.275 -9.00375,0 0,-11.275 z m 36.60374,-78.6 9.14999,0 0,89.875 -9.14999,0 0,-89.875 z m 73.34999,78.6 9,0 0,11.275 -9,0 0,-11.275 z"
       style="fill:#9bbb59;fill-opacity:0.70196001;fill-rule:nonzero;stroke:none"
       id="path9150"
       inkscape:connector-curvature="0" />
    <path
       d="m 331.00592,360.8233 9.15,0 0,62.425 -9.15,0 0,-62.425 z m 36.74999,12.45 9,0 0,49.975 -9,0 0,-49.975 z"
       style="fill:#8064a2;fill-opacity:0.70196001;fill-rule:nonzero;stroke:none"
       id="path9152"
       inkscape:connector-curvature="0" />
    <path
       d="m 270.41842,423.2483 146.675,0"
       style="fill:none;stroke:#bfbfbf;stroke-width:1.15547502;stroke-linecap:butt;stroke-linejoin:round;stroke-miterlimit:10;stroke-dasharray:none;stroke-opacity:1"
       id="path9154"
       inkscape:connector-curvature="0" />
    <path
       d="m 270.41842,423.2483 146.675,0"
       style="fill:none;stroke:#d9d9d9;stroke-width:0.69328749;stroke-linecap:butt;stroke-linejoin:round;stroke-miterlimit:10;stroke-dasharray:none;stroke-opacity:1"
       id="path9156"
       inkscape:connector-curvature="0" />
    <path
       d="m 270.41842,423.2483 0,18.8875 m 36.7375,-18.8875 0,18.8875 m 36.59999,-18.8875 0,18.8875 m 36.6,-18.8875 0,18.8875 m 36.73751,-18.8875 0,18.8875"
       style="fill:none;stroke:#d9d9d9;stroke-width:0.69328749;stroke-linecap:butt;stroke-linejoin:round;stroke-miterlimit:10;stroke-dasharray:none;stroke-opacity:1"
       id="path9158"
       inkscape:connector-curvature="0" />
    <g
       id="g9160"
       transform="matrix(1.25,0,0,-1.25,165.24342,1070.6108)">
      <g
         id="g9162"
         clip-path="url(#clipPath9164)">
        <text
           transform="matrix(1,0,0,-1,92.832,508.44)"
           style="font-variant:normal;font-weight:normal;font-size:5.88000011px;font-family:'Times New Roman';-inkscape-font-specification:TimesNewRomanPSMT;writing-mode:lr-tb;fill:#595959;fill-opacity:1;fill-rule:nonzero;stroke:none"
           id="text9168">
          <tspan
             x="0 4.3159199 7.1971202 8.87292 10.54872"
             y="0"
             sodipodi:role="line"
             id="tspan9170">Unil.</tspan>
        </text>
      </g>
    </g>
    <g
       id="g9172"
       transform="matrix(1.25,0,0,-1.25,165.24342,1070.6108)">
      <g
         id="g9174"
         clip-path="url(#clipPath9176)">
        <text
           transform="matrix(1,0,0,-1,117.89,508.44)"
           style="font-variant:normal;font-weight:normal;font-size:5.88000011px;font-family:'Times New Roman';-inkscape-font-specification:TimesNewRomanPSMT;writing-mode:lr-tb;fill:#595959;fill-opacity:1;fill-rule:nonzero;stroke:none"
           id="text9180">
          <tspan
             x="0 3.95136 6.9442801 11.51892 14.50008 17.0226 19.057079"
             y="0"
             sodipodi:role="line"
             id="tspan9182">Compar.</tspan>
        </text>
      </g>
    </g>
    <g
       id="g9184"
       transform="matrix(1.25,0,0,-1.25,165.24342,1070.6108)">
      <g
         id="g9186"
         clip-path="url(#clipPath9188)">
        <text
           transform="matrix(1,0,0,-1,151.75,508.44)"
           style="font-variant:normal;font-weight:normal;font-size:5.88000011px;font-family:'Times New Roman';-inkscape-font-specification:TimesNewRomanPSMT;writing-mode:lr-tb;fill:#595959;fill-opacity:1;fill-rule:nonzero;stroke:none"
           id="text9192">
          <tspan
             x="0 3.95136 6.9442801 8.5024796"
             y="0"
             sodipodi:role="line"
             id="tspan9194">Both</tspan>
        </text>
      </g>
    </g>
    <g
       id="g9196"
       transform="matrix(1.25,0,0,-1.25,165.24342,1070.6108)">
      <g
         id="g9198"
         clip-path="url(#clipPath9200)">
        <text
           transform="matrix(1,0,0,-1,176.57,511.85)"
           style="font-variant:normal;font-weight:normal;font-size:5.88000011px;font-family:'Times New Roman';-inkscape-font-specification:TimesNewRomanPSMT;writing-mode:lr-tb;fill:#595959;fill-opacity:1;fill-rule:nonzero;stroke:none"
           id="text9204">
          <tspan
             x="0 3.95136 6.9442801 11.51892 14.50008 17.0226 19.057079"
             y="0"
             sodipodi:role="line"
             id="tspan9206">Compar.</tspan>
        </text>
      </g>
    </g>
    <g
       id="g9208"
       transform="matrix(1.25,0,0,-1.25,165.24342,1070.6108)">
      <g
         id="g9210"
         clip-path="url(#clipPath9212)">
        <text
           transform="matrix(1,0,0,-1,179.45,505.03)"
           style="font-variant:normal;font-weight:normal;font-size:5.88000011px;font-family:'Times New Roman';-inkscape-font-specification:TimesNewRomanPSMT;writing-mode:lr-tb;fill:#595959;fill-opacity:1;fill-rule:nonzero;stroke:none"
           id="text9216">
          <tspan
             x="0 4.3159199 7.1971202 10.19004 13.18296"
             y="0"
             sodipodi:role="line"
             id="tspan9218">Doubt</tspan>
        </text>
      </g>
    </g>
    <path
       d="m 233.36967,442.1358 183.72375,0 m -183.72375,0 0,11.3125 m 37.03125,-11.3125 0,11.3125 m 0,-11.3125 0,11.3125 m 36.755,-11.3125 0,11.3125 m 0,-11.3125 0,11.3125 m 36.59999,-11.3125 0,11.3125 m 0,-11.3125 0,11.3125 m 36.6,-11.3125 0,11.3125 m 0,-11.3125 0,11.3125 m 36.73751,-11.3125 0,11.3125 m 0,-11.3125 0,11.3125"
       style="fill:none;stroke:#d9d9d9;stroke-width:0.69328749;stroke-linecap:butt;stroke-linejoin:round;stroke-miterlimit:10;stroke-dasharray:none;stroke-opacity:1"
       id="path9220"
       inkscape:connector-curvature="0" />
    <path
       d="m 235.90592,449.4233 3.68538,0 0,-3.68537 -3.68538,0 0,3.68537 z"
       style="fill:#4f81bd;fill-opacity:0.70196001;fill-rule:evenodd;stroke:none"
       id="path9222"
       inkscape:connector-curvature="0" />
    <g
       id="g9224"
       transform="matrix(1.25,0,0,-1.25,165.24342,1070.6108)">
      <g
         id="g9226"
         clip-path="url(#clipPath9228)">
        <text
           transform="matrix(1,0,0,-1,60.696,496.54)"
           style="font-variant:normal;font-weight:normal;font-size:5.88000011px;font-family:'Times New Roman';-inkscape-font-specification:TimesNewRomanPSMT;writing-mode:lr-tb;fill:#595959;fill-opacity:1;fill-rule:nonzero;stroke:none"
           id="text9232">
          <tspan
             x="0 4.3159199 6.2386799 9.2315998 12.1128 15.10572 16.54632"
             y="0"
             sodipodi:role="line"
             id="tspan9234">Group N</tspan>
        </text>
      </g>
    </g>
    <g
       id="g9236"
       transform="matrix(1.25,0,0,-1.25,165.24342,1070.6108)">
      <g
         id="g9238"
         clip-path="url(#clipPath9240)">
        <text
           transform="matrix(1,0,0,-1,89.712,496.37)"
           style="font-variant:normal;font-weight:normal;font-size:5.88000011px;font-family:'Times New Roman';-inkscape-font-specification:TimesNewRomanPSMT;writing-mode:lr-tb;fill:#595959;fill-opacity:1;fill-rule:nonzero;stroke:none"
           id="text9244">
          <tspan
             x="0 2.9929199 5.8741202 7.4264398 10.30764 13.30056"
             y="0"
             sodipodi:role="line"
             id="tspan9246">46.15%</tspan>
        </text>
      </g>
    </g>
    <g
       id="g9248"
       transform="matrix(1.25,0,0,-1.25,165.24342,1070.6108)">
      <g
         id="g9250"
         clip-path="url(#clipPath9252)">
        <text
           transform="matrix(1,0,0,-1,119.04,496.37)"
           style="font-variant:normal;font-weight:normal;font-size:5.88000011px;font-family:'Times New Roman';-inkscape-font-specification:TimesNewRomanPSMT;writing-mode:lr-tb;fill:#595959;fill-opacity:1;fill-rule:nonzero;stroke:none"
           id="text9256">
          <tspan
             x="0 2.9929199 5.8741202 7.4264398 10.30764 13.30056"
             y="0"
             sodipodi:role="line"
             id="tspan9258">46.15%</tspan>
        </text>
      </g>
    </g>
    <g
       id="g9260"
       transform="matrix(1.25,0,0,-1.25,165.24342,1070.6108)">
      <g
         id="g9262"
         clip-path="url(#clipPath9264)">
        <text
           transform="matrix(1,0,0,-1,179.21,496.37)"
           style="font-variant:normal;font-weight:normal;font-size:5.88000011px;font-family:'Times New Roman';-inkscape-font-specification:TimesNewRomanPSMT;writing-mode:lr-tb;fill:#595959;fill-opacity:1;fill-rule:nonzero;stroke:none"
           id="text9268">
          <tspan
             x="0 2.9929199 4.4335198 7.4264398 10.30764"
             y="0"
             sodipodi:role="line"
             id="tspan9270">7.69%</tspan>
        </text>
      </g>
    </g>
    <path
       d="m 233.36967,453.4483 183.72375,0 m -183.72375,0 0,11.3125 m 37.03125,-11.3125 0,11.3125 m 0,-11.3125 0,11.3125 m 36.755,-11.3125 0,11.3125 m 0,-11.3125 0,11.3125 m 36.59999,-11.3125 0,11.3125 m 0,-11.3125 0,11.3125 m 36.6,-11.3125 0,11.3125 m 0,-11.3125 0,11.3125 m 36.73751,-11.3125 0,11.3125 m 0,-11.3125 0,11.3125"
       style="fill:none;stroke:#d9d9d9;stroke-width:0.69328749;stroke-linecap:butt;stroke-linejoin:round;stroke-miterlimit:10;stroke-dasharray:none;stroke-opacity:1"
       id="path9272"
       inkscape:connector-curvature="0" />
    <path
       d="m 235.90592,460.7233 3.68538,0 0,-3.68538 -3.68538,0 0,3.68538 z"
       style="fill:#c0504d;fill-opacity:0.70196001;fill-rule:evenodd;stroke:none"
       id="path9274"
       inkscape:connector-curvature="0" />
    <g
       id="g9276"
       transform="matrix(1.25,0,0,-1.25,165.24342,1070.6108)">
      <g
         id="g9278"
         clip-path="url(#clipPath9280)">
        <text
           transform="matrix(1,0,0,-1,60.696,487.49)"
           style="font-variant:normal;font-weight:normal;font-size:5.88000011px;font-family:'Times New Roman';-inkscape-font-specification:TimesNewRomanPSMT;writing-mode:lr-tb;fill:#595959;fill-opacity:1;fill-rule:nonzero;stroke:none"
           id="text9284">
          <tspan
             x="0 4.3159199 6.2386799 9.2315998 12.1128 15.10572 16.54632 18.580799"
             y="0"
             sodipodi:role="line"
             id="tspan9286">Group I1</tspan>
        </text>
      </g>
    </g>
    <g
       id="g9288"
       transform="matrix(1.25,0,0,-1.25,165.24342,1070.6108)">
      <g
         id="g9290"
         clip-path="url(#clipPath9292)">
        <text
           transform="matrix(1,0,0,-1,89.712,487.32)"
           style="font-variant:normal;font-weight:normal;font-size:5.88000011px;font-family:'Times New Roman';-inkscape-font-specification:TimesNewRomanPSMT;writing-mode:lr-tb;fill:#595959;fill-opacity:1;fill-rule:nonzero;stroke:none"
           id="text9296">
          <tspan
             x="0 2.9929199 5.8741202 7.4264398 10.30764 13.30056"
             y="0"
             sodipodi:role="line"
             id="tspan9298">14.29%</tspan>
        </text>
      </g>
    </g>
    <g
       id="g9300"
       transform="matrix(1.25,0,0,-1.25,165.24342,1070.6108)">
      <g
         id="g9302"
         clip-path="url(#clipPath9304)">
        <text
           transform="matrix(1,0,0,-1,119.04,487.32)"
           style="font-variant:normal;font-weight:normal;font-size:5.88000011px;font-family:'Times New Roman';-inkscape-font-specification:TimesNewRomanPSMT;writing-mode:lr-tb;fill:#595959;fill-opacity:1;fill-rule:nonzero;stroke:none"
           id="text9308">
          <tspan
             x="0 2.9929199 5.8741202 7.4264398 10.30764 13.30056"
             y="0"
             sodipodi:role="line"
             id="tspan9310">71.43%</tspan>
        </text>
      </g>
    </g>
    <path
       d="m 233.36967,464.7608 183.72375,0 m -183.72375,0 0,11.3 m 37.03125,-11.3 0,11.3 m 0,-11.3 0,11.3 m 36.755,-11.3 0,11.3 m 0,-11.3 0,11.3 m 36.59999,-11.3 0,11.3 m 0,-11.3 0,11.3 m 36.6,-11.3 0,11.3 m 0,-11.3 0,11.3 m 36.73751,-11.3 0,11.3 m 0,-11.3 0,11.3"
       style="fill:none;stroke:#d9d9d9;stroke-width:0.69328749;stroke-linecap:butt;stroke-linejoin:round;stroke-miterlimit:10;stroke-dasharray:none;stroke-opacity:1"
       id="path9312"
       inkscape:connector-curvature="0" />
    <path
       d="m 235.90592,472.0358 3.68538,0 0,-3.68538 -3.68538,0 0,3.68538 z"
       style="fill:#9bbb59;fill-opacity:0.70196001;fill-rule:evenodd;stroke:none"
       id="path9314"
       inkscape:connector-curvature="0" />
    <g
       id="g9316"
       transform="matrix(1.25,0,0,-1.25,165.24342,1070.6108)">
      <g
         id="g9318"
         clip-path="url(#clipPath9320)">
        <text
           transform="matrix(1,0,0,-1,60.696,478.44)"
           style="font-variant:normal;font-weight:normal;font-size:5.88000011px;font-family:'Times New Roman';-inkscape-font-specification:TimesNewRomanPSMT;writing-mode:lr-tb;fill:#595959;fill-opacity:1;fill-rule:nonzero;stroke:none"
           id="text9324">
          <tspan
             x="0 4.3159199 6.2386799 9.2315998 12.1128 15.10572 16.54632 18.580799"
             y="0"
             sodipodi:role="line"
             id="tspan9326">Group I2</tspan>
        </text>
      </g>
    </g>
    <g
       id="g9328"
       transform="matrix(1.25,0,0,-1.25,165.24342,1070.6108)">
      <g
         id="g9330"
         clip-path="url(#clipPath9332)">
        <text
           transform="matrix(1,0,0,-1,89.712,478.27)"
           style="font-variant:normal;font-weight:normal;font-size:5.88000011px;font-family:'Times New Roman';-inkscape-font-specification:TimesNewRomanPSMT;writing-mode:lr-tb;fill:#595959;fill-opacity:1;fill-rule:nonzero;stroke:none"
           id="text9336">
          <tspan
             x="0 2.9929199 5.8741202 7.4264398 10.30764 13.30056"
             y="0"
             sodipodi:role="line"
             id="tspan9338">10.00%</tspan>
        </text>
      </g>
    </g>
    <g
       id="g9340"
       transform="matrix(1.25,0,0,-1.25,165.24342,1070.6108)">
      <g
         id="g9342"
         clip-path="url(#clipPath9344)">
        <text
           transform="matrix(1,0,0,-1,119.04,478.27)"
           style="font-variant:normal;font-weight:normal;font-size:5.88000011px;font-family:'Times New Roman';-inkscape-font-specification:TimesNewRomanPSMT;writing-mode:lr-tb;fill:#595959;fill-opacity:1;fill-rule:nonzero;stroke:none"
           id="text9348">
          <tspan
             x="0 2.9929199 5.8741202 7.4264398 10.30764 13.30056"
             y="0"
             sodipodi:role="line"
             id="tspan9350">80.00%</tspan>
        </text>
      </g>
    </g>
    <g
       id="g9352"
       transform="matrix(1.25,0,0,-1.25,165.24342,1070.6108)">
      <g
         id="g9354"
         clip-path="url(#clipPath9356)">
        <text
           transform="matrix(1,0,0,-1,177.72,478.27)"
           style="font-variant:normal;font-weight:normal;font-size:5.88000011px;font-family:'Times New Roman';-inkscape-font-specification:TimesNewRomanPSMT;writing-mode:lr-tb;fill:#595959;fill-opacity:1;fill-rule:nonzero;stroke:none"
           id="text9360">
          <tspan
             x="0 2.9929199 5.8741202 7.4264398 10.30764 13.30056"
             y="0"
             sodipodi:role="line"
             id="tspan9362">10.00%</tspan>
        </text>
      </g>
    </g>
    <path
       d="m 233.36967,476.0608 183.72375,0 m -183.72375,0 0,11.3125 m 0,0 183.72375,0 m -146.69249,-11.3125 0,11.3125 m 0,-11.3125 0,11.3125 m 36.755,-11.3125 0,11.3125 m 0,-11.3125 0,11.3125 m 36.59998,-11.3125 0,11.3125 m 0,-11.3125 0,11.3125 m 36.6,-11.3125 0,11.3125 m 0,-11.3125 0,11.3125 m 36.73751,-11.3125 0,11.3125 m 0,-11.3125 0,11.3125"
       style="fill:none;stroke:#d9d9d9;stroke-width:0.69328749;stroke-linecap:butt;stroke-linejoin:round;stroke-miterlimit:10;stroke-dasharray:none;stroke-opacity:1"
       id="path9364"
       inkscape:connector-curvature="0" />
    <path
       d="m 235.90592,483.3483 3.68538,0 0,-3.68538 -3.68538,0 0,3.68538 z"
       style="fill:#8064a2;fill-opacity:0.70196001;fill-rule:evenodd;stroke:none"
       id="path9366"
       inkscape:connector-curvature="0" />
    <g
       id="g9368"
       transform="matrix(1.25,0,0,-1.25,165.24342,1070.6108)">
      <g
         id="g9370"
         clip-path="url(#clipPath9372)">
        <text
           transform="matrix(1,0,0,-1,60.696,469.39)"
           style="font-variant:normal;font-weight:normal;font-size:5.88000011px;font-family:'Times New Roman';-inkscape-font-specification:TimesNewRomanPSMT;writing-mode:lr-tb;fill:#595959;fill-opacity:1;fill-rule:nonzero;stroke:none"
           id="text9376">
          <tspan
             x="0 4.3159199 6.2386799 9.2315998 12.1128 15.10572 16.54632"
             y="0"
             sodipodi:role="line"
             id="tspan9378">Group P</tspan>
        </text>
      </g>
    </g>
    <g
       id="g9380"
       transform="matrix(1.25,0,0,-1.25,165.24342,1070.6108)">
      <g
         id="g9382"
         clip-path="url(#clipPath9384)">
        <text
           transform="matrix(1,0,0,-1,119.04,469.22)"
           style="font-variant:normal;font-weight:normal;font-size:5.88000011px;font-family:'Times New Roman';-inkscape-font-specification:TimesNewRomanPSMT;writing-mode:lr-tb;fill:#595959;fill-opacity:1;fill-rule:nonzero;stroke:none"
           id="text9388">
          <tspan
             x="0 2.9929199 5.8741202 7.4264398 10.30764 13.30056"
             y="0"
             sodipodi:role="line"
             id="tspan9390">55.56%</tspan>
        </text>
      </g>
    </g>
    <g
       id="g9392"
       transform="matrix(1.25,0,0,-1.25,165.24342,1070.6108)">
      <g
         id="g9394"
         clip-path="url(#clipPath9396)">
        <text
           transform="matrix(1,0,0,-1,148.39,469.22)"
           style="font-variant:normal;font-weight:normal;font-size:5.88000011px;font-family:'Times New Roman';-inkscape-font-specification:TimesNewRomanPSMT;writing-mode:lr-tb;fill:#595959;fill-opacity:1;fill-rule:nonzero;stroke:none"
           id="text9400">
          <tspan
             x="0 2.9929199 5.8741202 7.4264398 10.30764 13.30056"
             y="0"
             sodipodi:role="line"
             id="tspan9402">44.44%</tspan>
        </text>
      </g>
    </g>
    <g
       id="g9404"
       transform="matrix(1.25,0,0,-1.25,165.24342,1070.6108)">
      <g
         id="g9406"
         clip-path="url(#clipPath9408)">
        <text
           transform="matrix(1,0,0,-1,63.12,515.88)"
           style="font-variant:normal;font-weight:normal;font-size:5.88000011px;font-family:'Times New Roman';-inkscape-font-specification:TimesNewRomanPSMT;writing-mode:lr-tb;fill:#595959;fill-opacity:1;fill-rule:nonzero;stroke:none"
           id="text9412">
          <tspan
             x="0 3.1164 4.6687198 7.78512 10.90152"
             y="0"
             sodipodi:role="line"
             id="tspan9414">0.00%</tspan>
        </text>
      </g>
    </g>
    <g
       id="g9416"
       transform="matrix(1.25,0,0,-1.25,165.24342,1070.6108)">
      <g
         id="g9418"
         clip-path="url(#clipPath9420)">
        <text
           transform="matrix(1,0,0,-1,60,524.88)"
           style="font-variant:normal;font-weight:normal;font-size:5.88000011px;font-family:'Times New Roman';-inkscape-font-specification:TimesNewRomanPSMT;writing-mode:lr-tb;fill:#595959;fill-opacity:1;fill-rule:nonzero;stroke:none"
           id="text9424">
          <tspan
             x="0 3.1164 6.2328 7.78512 10.90152 14.01792"
             y="0"
             sodipodi:role="line"
             id="tspan9426">10.00%</tspan>
        </text>
      </g>
    </g>
    <g
       id="g9428"
       transform="matrix(1.25,0,0,-1.25,165.24342,1070.6108)">
      <g
         id="g9430"
         clip-path="url(#clipPath9432)">
        <text
           transform="matrix(1,0,0,-1,60,533.86)"
           style="font-variant:normal;font-weight:normal;font-size:5.88000011px;font-family:'Times New Roman';-inkscape-font-specification:TimesNewRomanPSMT;writing-mode:lr-tb;fill:#595959;fill-opacity:1;fill-rule:nonzero;stroke:none"
           id="text9436">
          <tspan
             x="0 3.1164 6.2328 7.78512 10.90152 14.01792"
             y="0"
             sodipodi:role="line"
             id="tspan9438">20.00%</tspan>
        </text>
      </g>
    </g>
    <g
       id="g9440"
       transform="matrix(1.25,0,0,-1.25,165.24342,1070.6108)">
      <g
         id="g9442"
         clip-path="url(#clipPath9444)">
        <text
           transform="matrix(1,0,0,-1,60,542.86)"
           style="font-variant:normal;font-weight:normal;font-size:5.88000011px;font-family:'Times New Roman';-inkscape-font-specification:TimesNewRomanPSMT;writing-mode:lr-tb;fill:#595959;fill-opacity:1;fill-rule:nonzero;stroke:none"
           id="text9448">
          <tspan
             x="0 3.1164 6.2328 7.78512 10.90152 14.01792"
             y="0"
             sodipodi:role="line"
             id="tspan9450">30.00%</tspan>
        </text>
      </g>
    </g>
    <g
       id="g9452"
       transform="matrix(1.25,0,0,-1.25,165.24342,1070.6108)">
      <g
         id="g9454"
         clip-path="url(#clipPath9456)">
        <text
           transform="matrix(1,0,0,-1,60,551.83)"
           style="font-variant:normal;font-weight:normal;font-size:5.88000011px;font-family:'Times New Roman';-inkscape-font-specification:TimesNewRomanPSMT;writing-mode:lr-tb;fill:#595959;fill-opacity:1;fill-rule:nonzero;stroke:none"
           id="text9460">
          <tspan
             x="0 3.1164 6.2328 7.78512 10.90152 14.01792"
             y="0"
             sodipodi:role="line"
             id="tspan9462">40.00%</tspan>
        </text>
      </g>
    </g>
    <g
       id="g9464"
       transform="matrix(1.25,0,0,-1.25,165.24342,1070.6108)">
      <g
         id="g9466"
         clip-path="url(#clipPath9468)">
        <text
           transform="matrix(1,0,0,-1,60,560.83)"
           style="font-variant:normal;font-weight:normal;font-size:5.88000011px;font-family:'Times New Roman';-inkscape-font-specification:TimesNewRomanPSMT;writing-mode:lr-tb;fill:#595959;fill-opacity:1;fill-rule:nonzero;stroke:none"
           id="text9472">
          <tspan
             x="0 3.1164 6.2328 7.78512 10.90152 14.01792"
             y="0"
             sodipodi:role="line"
             id="tspan9474">50.00%</tspan>
        </text>
      </g>
    </g>
    <g
       id="g9476"
       transform="matrix(1.25,0,0,-1.25,165.24342,1070.6108)">
      <g
         id="g9478"
         clip-path="url(#clipPath9480)">
        <text
           transform="matrix(1,0,0,-1,60,569.81)"
           style="font-variant:normal;font-weight:normal;font-size:5.88000011px;font-family:'Times New Roman';-inkscape-font-specification:TimesNewRomanPSMT;writing-mode:lr-tb;fill:#595959;fill-opacity:1;fill-rule:nonzero;stroke:none"
           id="text9484">
          <tspan
             x="0 3.1164 6.2328 7.78512 10.90152 14.01792"
             y="0"
             sodipodi:role="line"
             id="tspan9486">60.00%</tspan>
        </text>
      </g>
    </g>
    <g
       id="g9488"
       transform="matrix(1.25,0,0,-1.25,165.24342,1070.6108)">
      <g
         id="g9490"
         clip-path="url(#clipPath9492)">
        <text
           transform="matrix(1,0,0,-1,60,578.81)"
           style="font-variant:normal;font-weight:normal;font-size:5.88000011px;font-family:'Times New Roman';-inkscape-font-specification:TimesNewRomanPSMT;writing-mode:lr-tb;fill:#595959;fill-opacity:1;fill-rule:nonzero;stroke:none"
           id="text9496">
          <tspan
             x="0 3.1164 6.2328 7.78512 10.90152 14.01792"
             y="0"
             sodipodi:role="line"
             id="tspan9498">70.00%</tspan>
        </text>
      </g>
    </g>
    <g
       id="g9500"
       transform="matrix(1.25,0,0,-1.25,165.24342,1070.6108)">
      <g
         id="g9502"
         clip-path="url(#clipPath9504)">
        <text
           transform="matrix(1,0,0,-1,60,587.78)"
           style="font-variant:normal;font-weight:normal;font-size:5.88000011px;font-family:'Times New Roman';-inkscape-font-specification:TimesNewRomanPSMT;writing-mode:lr-tb;fill:#595959;fill-opacity:1;fill-rule:nonzero;stroke:none"
           id="text9508">
          <tspan
             x="0 3.1164 6.2328 7.78512 10.90152 14.01792"
             y="0"
             sodipodi:role="line"
             id="tspan9510">80.00%</tspan>
        </text>
      </g>
    </g>
    <g
       id="g9512"
       transform="matrix(1.25,0,0,-1.25,165.24342,1070.6108)">
      <g
         id="g9514"
         clip-path="url(#clipPath9516)">
        <text
           transform="matrix(1,0,0,-1,60,596.78)"
           style="font-variant:normal;font-weight:normal;font-size:5.88000011px;font-family:'Times New Roman';-inkscape-font-specification:TimesNewRomanPSMT;writing-mode:lr-tb;fill:#595959;fill-opacity:1;fill-rule:nonzero;stroke:none"
           id="text9520">
          <tspan
             x="0 3.1164 6.2328 7.78512 10.90152 14.01792"
             y="0"
             sodipodi:role="line"
             id="tspan9522">90.00%</tspan>
        </text>
      </g>
    </g>
    <g
       id="g9524"
       transform="matrix(1.25,0,0,-1.25,165.24342,1070.6108)">
      <g
         id="g9526"
         clip-path="url(#clipPath9528)">
        <text
           transform="matrix(1,0,0,-1,56.88,605.76)"
           style="font-variant:normal;font-weight:normal;font-size:5.88000011px;font-family:'Times New Roman';-inkscape-font-specification:TimesNewRomanPSMT;writing-mode:lr-tb;fill:#595959;fill-opacity:1;fill-rule:nonzero;stroke:none"
           id="text9532">
          <tspan
             x="0 3.1164 6.2328 9.3492002 10.90152 14.01792 17.134319"
             y="0"
             sodipodi:role="line"
             id="tspan9534">100.00%</tspan>
        </text>
      </g>
    </g>
  </g>
</svg>
