<?xml version="1.0" encoding="UTF-8" standalone="no"?>
<!-- Created with Inkscape (http://www.inkscape.org/) -->

<svg
   xmlns:dc="http://purl.org/dc/elements/1.1/"
   xmlns:cc="http://creativecommons.org/ns#"
   xmlns:rdf="http://www.w3.org/1999/02/22-rdf-syntax-ns#"
   xmlns:svg="http://www.w3.org/2000/svg"
   xmlns="http://www.w3.org/2000/svg"
   xmlns:sodipodi="http://sodipodi.sourceforge.net/DTD/sodipodi-0.dtd"
   xmlns:inkscape="http://www.inkscape.org/namespaces/inkscape"
   width="52.046936mm"
   height="50.602283mm"
   viewBox="0 0 184.41828 179.29943"
   id="svg17321"
   version="1.1"
   inkscape:version="0.91 r13725"
   sodipodi:docname="figure6.svg">
  <defs
     id="defs17323">
    <clipPath
       id="clipPath15229"
       clipPathUnits="userSpaceOnUse">
      <path
         style="clip-rule:evenodd"
         inkscape:connector-curvature="0"
         id="path15231"
         d="m 225.12,462.48 167.64,0 0,153 -167.64,0 0,-153 z" />
    </clipPath>
    <clipPath
       id="clipPath15217"
       clipPathUnits="userSpaceOnUse">
      <path
         style="clip-rule:evenodd"
         inkscape:connector-curvature="0"
         id="path15219"
         d="m 225.12,462.48 167.64,0 0,153 -167.64,0 0,-153 z" />
    </clipPath>
    <clipPath
       id="clipPath15205"
       clipPathUnits="userSpaceOnUse">
      <path
         style="clip-rule:evenodd"
         inkscape:connector-curvature="0"
         id="path15207"
         d="m 225.12,462.48 167.64,0 0,153 -167.64,0 0,-153 z" />
    </clipPath>
    <clipPath
       id="clipPath15193"
       clipPathUnits="userSpaceOnUse">
      <path
         style="clip-rule:evenodd"
         inkscape:connector-curvature="0"
         id="path15195"
         d="m 225.12,462.48 167.64,0 0,153 -167.64,0 0,-153 z" />
    </clipPath>
    <clipPath
       id="clipPath15181"
       clipPathUnits="userSpaceOnUse">
      <path
         style="clip-rule:evenodd"
         inkscape:connector-curvature="0"
         id="path15183"
         d="m 225.12,462.48 167.64,0 0,153 -167.64,0 0,-153 z" />
    </clipPath>
    <clipPath
       id="clipPath15169"
       clipPathUnits="userSpaceOnUse">
      <path
         style="clip-rule:evenodd"
         inkscape:connector-curvature="0"
         id="path15171"
         d="m 225.12,462.48 167.64,0 0,153 -167.64,0 0,-153 z" />
    </clipPath>
    <clipPath
       id="clipPath15157"
       clipPathUnits="userSpaceOnUse">
      <path
         style="clip-rule:evenodd"
         inkscape:connector-curvature="0"
         id="path15159"
         d="m 225.12,462.48 167.64,0 0,153 -167.64,0 0,-153 z" />
    </clipPath>
    <clipPath
       id="clipPath15145"
       clipPathUnits="userSpaceOnUse">
      <path
         style="clip-rule:evenodd"
         inkscape:connector-curvature="0"
         id="path15147"
         d="m 225.12,462.48 167.64,0 0,153 -167.64,0 0,-153 z" />
    </clipPath>
    <clipPath
       id="clipPath15133"
       clipPathUnits="userSpaceOnUse">
      <path
         style="clip-rule:evenodd"
         inkscape:connector-curvature="0"
         id="path15135"
         d="m 225.12,462.48 167.64,0 0,153 -167.64,0 0,-153 z" />
    </clipPath>
    <clipPath
       id="clipPath15121"
       clipPathUnits="userSpaceOnUse">
      <path
         style="clip-rule:evenodd"
         inkscape:connector-curvature="0"
         id="path15123"
         d="m 225.12,462.48 167.64,0 0,153 -167.64,0 0,-153 z" />
    </clipPath>
    <clipPath
       id="clipPath15109"
       clipPathUnits="userSpaceOnUse">
      <path
         style="clip-rule:evenodd"
         inkscape:connector-curvature="0"
         id="path15111"
         d="m 225.12,462.48 167.64,0 0,153 -167.64,0 0,-153 z" />
    </clipPath>
    <clipPath
       id="clipPath15097"
       clipPathUnits="userSpaceOnUse">
      <path
         style="clip-rule:evenodd"
         inkscape:connector-curvature="0"
         id="path15099"
         d="m 225.12,462.48 167.64,0 0,153 -167.64,0 0,-153 z" />
    </clipPath>
    <clipPath
       id="clipPath15085"
       clipPathUnits="userSpaceOnUse">
      <path
         style="clip-rule:evenodd"
         inkscape:connector-curvature="0"
         id="path15087"
         d="m 225.12,462.48 167.64,0 0,153 -167.64,0 0,-153 z" />
    </clipPath>
    <clipPath
       id="clipPath15073"
       clipPathUnits="userSpaceOnUse">
      <path
         style="clip-rule:evenodd"
         inkscape:connector-curvature="0"
         id="path15075"
         d="m 225.12,462.48 167.64,0 0,153 -167.64,0 0,-153 z" />
    </clipPath>
    <clipPath
       id="clipPath15061"
       clipPathUnits="userSpaceOnUse">
      <path
         style="clip-rule:evenodd"
         inkscape:connector-curvature="0"
         id="path15063"
         d="m 225.12,462.48 167.64,0 0,153 -167.64,0 0,-153 z" />
    </clipPath>
    <clipPath
       id="clipPath15045"
       clipPathUnits="userSpaceOnUse">
      <path
         style="clip-rule:evenodd"
         inkscape:connector-curvature="0"
         id="path15047"
         d="m 225.12,462.48 167.64,0 0,153 -167.64,0 0,-153 z" />
    </clipPath>
    <clipPath
       id="clipPath15033"
       clipPathUnits="userSpaceOnUse">
      <path
         style="clip-rule:evenodd"
         inkscape:connector-curvature="0"
         id="path15035"
         d="m 225.12,462.48 167.64,0 0,153 -167.64,0 0,-153 z" />
    </clipPath>
    <clipPath
       id="clipPath15021"
       clipPathUnits="userSpaceOnUse">
      <path
         style="clip-rule:evenodd"
         inkscape:connector-curvature="0"
         id="path15023"
         d="m 225.12,462.48 167.64,0 0,153 -167.64,0 0,-153 z" />
    </clipPath>
    <clipPath
       id="clipPath15009"
       clipPathUnits="userSpaceOnUse">
      <path
         style="clip-rule:evenodd"
         inkscape:connector-curvature="0"
         id="path15011"
         d="m 225.12,462.48 167.64,0 0,153 -167.64,0 0,-153 z" />
    </clipPath>
    <clipPath
       id="clipPath14993"
       clipPathUnits="userSpaceOnUse">
      <path
         style="clip-rule:evenodd"
         inkscape:connector-curvature="0"
         id="path14995"
         d="m 225.12,462.48 167.64,0 0,153 -167.64,0 0,-153 z" />
    </clipPath>
    <clipPath
       id="clipPath14981"
       clipPathUnits="userSpaceOnUse">
      <path
         style="clip-rule:evenodd"
         inkscape:connector-curvature="0"
         id="path14983"
         d="m 225.12,462.48 167.64,0 0,153 -167.64,0 0,-153 z" />
    </clipPath>
    <clipPath
       id="clipPath14969"
       clipPathUnits="userSpaceOnUse">
      <path
         style="clip-rule:evenodd"
         inkscape:connector-curvature="0"
         id="path14971"
         d="m 225.12,462.48 167.64,0 0,153 -167.64,0 0,-153 z" />
    </clipPath>
    <clipPath
       id="clipPath14957"
       clipPathUnits="userSpaceOnUse">
      <path
         style="clip-rule:evenodd"
         inkscape:connector-curvature="0"
         id="path14959"
         d="m 225.12,462.48 167.64,0 0,153 -167.64,0 0,-153 z" />
    </clipPath>
    <clipPath
       id="clipPath14941"
       clipPathUnits="userSpaceOnUse">
      <path
         style="clip-rule:evenodd"
         inkscape:connector-curvature="0"
         id="path14943"
         d="m 225.12,462.48 167.64,0 0,153 -167.64,0 0,-153 z" />
    </clipPath>
    <clipPath
       id="clipPath14929"
       clipPathUnits="userSpaceOnUse">
      <path
         style="clip-rule:evenodd"
         inkscape:connector-curvature="0"
         id="path14931"
         d="m 225.12,462.48 167.64,0 0,153 -167.64,0 0,-153 z" />
    </clipPath>
    <clipPath
       id="clipPath14917"
       clipPathUnits="userSpaceOnUse">
      <path
         style="clip-rule:evenodd"
         inkscape:connector-curvature="0"
         id="path14919"
         d="m 225.12,462.48 167.64,0 0,153 -167.64,0 0,-153 z" />
    </clipPath>
    <clipPath
       id="clipPath14901"
       clipPathUnits="userSpaceOnUse">
      <path
         style="clip-rule:evenodd"
         inkscape:connector-curvature="0"
         id="path14903"
         d="m 225.12,462.48 167.64,0 0,153 -167.64,0 0,-153 z" />
    </clipPath>
    <clipPath
       id="clipPath14889"
       clipPathUnits="userSpaceOnUse">
      <path
         style="clip-rule:evenodd"
         inkscape:connector-curvature="0"
         id="path14891"
         d="m 225.12,462.48 167.64,0 0,153 -167.64,0 0,-153 z" />
    </clipPath>
    <clipPath
       id="clipPath14877"
       clipPathUnits="userSpaceOnUse">
      <path
         style="clip-rule:evenodd"
         inkscape:connector-curvature="0"
         id="path14879"
         d="m 225.12,462.48 167.64,0 0,153 -167.64,0 0,-153 z" />
    </clipPath>
    <clipPath
       id="clipPath14865"
       clipPathUnits="userSpaceOnUse">
      <path
         style="clip-rule:evenodd"
         inkscape:connector-curvature="0"
         id="path14867"
         d="m 225.12,462.48 167.64,0 0,153 -167.64,0 0,-153 z" />
    </clipPath>
    <clipPath
       id="clipPath14853"
       clipPathUnits="userSpaceOnUse">
      <path
         style="clip-rule:evenodd"
         inkscape:connector-curvature="0"
         id="path14855"
         d="m 225.12,462.48 167.64,0 0,153 -167.64,0 0,-153 z" />
    </clipPath>
  </defs>
  <sodipodi:namedview
     id="base"
     pagecolor="#ffffff"
     bordercolor="#666666"
     borderopacity="1.0"
     inkscape:pageopacity="0.0"
     inkscape:pageshadow="2"
     inkscape:zoom="2.8"
     inkscape:cx="82.923424"
     inkscape:cy="90.357617"
     inkscape:document-units="px"
     inkscape:current-layer="layer1"
     showgrid="false"
     fit-margin-top="0"
     fit-margin-left="0"
     fit-margin-right="0"
     fit-margin-bottom="0"
     inkscape:window-width="1600"
     inkscape:window-height="821"
     inkscape:window-x="1280"
     inkscape:window-y="24"
     inkscape:window-maximized="1" />
  <metadata
     id="metadata17326">
    <rdf:RDF>
      <cc:Work
         rdf:about="">
        <dc:format>image/svg+xml</dc:format>
        <dc:type
           rdf:resource="http://purl.org/dc/dcmitype/StillImage" />
        <dc:title></dc:title>
      </cc:Work>
    </rdf:RDF>
  </metadata>
  <g
     inkscape:label="Layer 1"
     inkscape:groupmode="layer"
     id="layer1"
     transform="translate(-242.07658,-334.14104)">
    <path
       d="m 279.47322,437.70633 146.67499,0 m -146.67499,-11.25 146.67499,0 m -146.67499,-11.25 146.67499,0 m -146.67499,-11.25 146.67499,0 m -146.67499,-11.1 146.67499,0 m -146.67499,-11.25 146.67499,0 m -146.67499,-11.25 146.67499,0 m -146.67499,-11.25 146.67499,0 m -146.67499,-11.25 146.67499,0 m -146.67499,-11.225 146.67499,0"
       style="fill:none;stroke:#f2f2f2;stroke-width:0.69328749;stroke-linecap:butt;stroke-linejoin:round;stroke-miterlimit:10;stroke-dasharray:none;stroke-opacity:1"
       id="path14833"
       inkscape:connector-curvature="0" />
    <path
       d="m 283.11072,379.80633 9,0 0,69.1625 -9,0 0,-69.1625 z m 36.6,25.95 9.15,0 0,43.2125 -9.15,0 0,-43.2125 z"
       style="fill:#4f81bd;fill-opacity:0.70196001;fill-rule:nonzero;stroke:none"
       id="path14835"
       inkscape:connector-curvature="0" />
    <path
       d="m 289.86072,402.15633 9.15,0 0,46.8125 -9.15,0 0,-46.8125 z m 36.75,0 9,0 0,46.8125 -9,0 0,-46.8125 z m 36.59999,37.5 9,0 0,9.3125 -9,0 0,-9.3125 z"
       style="fill:#c0504d;fill-opacity:0.70196001;fill-rule:nonzero;stroke:none"
       id="path14837"
       inkscape:connector-curvature="0" />
    <path
       d="m 296.61072,411.45633 9.15,0 0,37.5125 -9.15,0 0,-37.5125 z m 36.75,-24.9 8.99999,0 0,62.4125 -8.99999,0 0,-62.4125 z"
       style="fill:#9bbb59;fill-opacity:0.70196001;fill-rule:nonzero;stroke:none"
       id="path14839"
       inkscape:connector-curvature="0" />
    <path
       d="m 303.51072,434.85633 9,0 0,14.1125 -9,0 0,-14.1125 z m 36.6,-70.2 8.99999,0 0,84.3125 -8.99999,0 0,-84.3125 z m 36.74999,70.2 9.0125,0 0,14.1125 -9.0125,0 0,-14.1125 z"
       style="fill:#8064a2;fill-opacity:0.70196001;fill-rule:nonzero;stroke:none"
       id="path14841"
       inkscape:connector-curvature="0" />
    <path
       d="m 279.47322,448.96883 146.67499,0"
       style="fill:none;stroke:#bfbfbf;stroke-width:1.15547502;stroke-linecap:butt;stroke-linejoin:round;stroke-miterlimit:10;stroke-dasharray:none;stroke-opacity:1"
       id="path14843"
       inkscape:connector-curvature="0" />
    <path
       d="m 279.47322,448.96883 146.67499,0"
       style="fill:none;stroke:#d9d9d9;stroke-width:0.69328749;stroke-linecap:butt;stroke-linejoin:round;stroke-miterlimit:10;stroke-dasharray:none;stroke-opacity:1"
       id="path14845"
       inkscape:connector-curvature="0" />
    <path
       d="m 279.47322,448.96883 0,18.8875 m 36.6375,-18.8875 0,18.8875 m 36.74999,-18.8875 0,18.8875 m 36.6125,-18.8875 0,18.8875 m 36.675,-18.8875 0,18.8875"
       style="fill:none;stroke:#d9d9d9;stroke-width:0.69328749;stroke-linecap:butt;stroke-linejoin:round;stroke-miterlimit:10;stroke-dasharray:none;stroke-opacity:1"
       id="path14847"
       inkscape:connector-curvature="0" />
    <g
       id="g14849"
       transform="matrix(1.25,0,0,-1.25,-54.714288,1095.7438)">
      <g
         id="g14851"
         clip-path="url(#clipPath14853)">
        <text
           transform="matrix(1,0,0,-1,276.07,507.98)"
           style="font-variant:normal;font-weight:normal;font-size:5.88000011px;font-family:'Times New Roman';-inkscape-font-specification:TimesNewRomanPSMT;writing-mode:lr-tb;fill:#595959;fill-opacity:1;fill-rule:nonzero;stroke:none"
           id="text14857">
          <tspan
             x="0 4.3159199 7.1971202 8.87292 10.54872"
             y="0"
             sodipodi:role="line"
             id="tspan14859">Unil.</tspan>
        </text>
      </g>
    </g>
    <g
       id="g14861"
       transform="matrix(1.25,0,0,-1.25,-54.714288,1095.7438)">
      <g
         id="g14863"
         clip-path="url(#clipPath14865)">
        <text
           transform="matrix(1,0,0,-1,301.15,507.98)"
           style="font-variant:normal;font-weight:normal;font-size:5.88000011px;font-family:'Times New Roman';-inkscape-font-specification:TimesNewRomanPSMT;writing-mode:lr-tb;fill:#595959;fill-opacity:1;fill-rule:nonzero;stroke:none"
           id="text14869">
          <tspan
             x="0 3.95136 6.9442801 11.51892 14.50008 17.0226 19.057079"
             y="0"
             sodipodi:role="line"
             id="tspan14871">Compar.</tspan>
        </text>
      </g>
    </g>
    <g
       id="g14873"
       transform="matrix(1.25,0,0,-1.25,-54.714288,1095.7438)">
      <g
         id="g14875"
         clip-path="url(#clipPath14877)">
        <text
           transform="matrix(1,0,0,-1,334.99,507.98)"
           style="font-variant:normal;font-weight:normal;font-size:5.88000011px;font-family:'Times New Roman';-inkscape-font-specification:TimesNewRomanPSMT;writing-mode:lr-tb;fill:#595959;fill-opacity:1;fill-rule:nonzero;stroke:none"
           id="text14881">
          <tspan
             x="0 3.95136 6.9442801 8.5024796"
             y="0"
             sodipodi:role="line"
             id="tspan14883">Both</tspan>
        </text>
      </g>
    </g>
    <g
       id="g14885"
       transform="matrix(1.25,0,0,-1.25,-54.714288,1095.7438)">
      <g
         id="g14887"
         clip-path="url(#clipPath14889)">
        <text
           transform="matrix(1,0,0,-1,359.83,511.37)"
           style="font-variant:normal;font-weight:normal;font-size:5.88000011px;font-family:'Times New Roman';-inkscape-font-specification:TimesNewRomanPSMT;writing-mode:lr-tb;fill:#595959;fill-opacity:1;fill-rule:nonzero;stroke:none"
           id="text14893">
          <tspan
             x="0 3.95136 6.9442801 11.51892 14.50008 17.0226 19.057079"
             y="0"
             sodipodi:role="line"
             id="tspan14895">Compar.</tspan>
        </text>
      </g>
    </g>
    <g
       id="g14897"
       transform="matrix(1.25,0,0,-1.25,-54.714288,1095.7438)">
      <g
         id="g14899"
         clip-path="url(#clipPath14901)">
        <text
           transform="matrix(1,0,0,-1,362.69,504.58)"
           style="font-variant:normal;font-weight:normal;font-size:5.88000011px;font-family:'Times New Roman';-inkscape-font-specification:TimesNewRomanPSMT;writing-mode:lr-tb;fill:#595959;fill-opacity:1;fill-rule:nonzero;stroke:none"
           id="text14905">
          <tspan
             x="0 4.3159199 7.1971202 10.19004 13.18296"
             y="0"
             sodipodi:role="line"
             id="tspan14907">Doubt</tspan>
        </text>
      </g>
    </g>
    <path
       d="m 242.42322,467.85633 183.72499,0 m -183.72499,0 0,11.3125 m 37.0875,-11.3125 0,11.3125 m 0,-11.3125 0,11.3125 m 36.6,-11.3125 0,11.3125 m 0,-11.3125 0,11.3125 m 36.74999,-11.3125 0,11.3125 m 0,-11.3125 0,11.3125 m 36.6125,-11.3125 0,11.3125 m 0,-11.3125 0,11.3125 m 36.675,-11.3125 0,11.3125 m 0,-11.3125 0,11.3125"
       style="fill:none;stroke:#d9d9d9;stroke-width:0.69328749;stroke-linecap:butt;stroke-linejoin:round;stroke-miterlimit:10;stroke-dasharray:none;stroke-opacity:1"
       id="path14909"
       inkscape:connector-curvature="0" />
    <path
       d="m 244.96072,475.14383 3.68537,0 0,-3.68538 -3.68537,0 0,3.68538 z"
       style="fill:#4f81bd;fill-opacity:0.70196001;fill-rule:evenodd;stroke:none"
       id="path14911"
       inkscape:connector-curvature="0" />
    <g
       id="g14913"
       transform="matrix(1.25,0,0,-1.25,-54.714288,1095.7438)">
      <g
         id="g14915"
         clip-path="url(#clipPath14917)">
        <text
           transform="matrix(1,0,0,-1,243.94,496.06)"
           style="font-variant:normal;font-weight:normal;font-size:5.88000011px;font-family:'Times New Roman';-inkscape-font-specification:TimesNewRomanPSMT;writing-mode:lr-tb;fill:#595959;fill-opacity:1;fill-rule:nonzero;stroke:none"
           id="text14921">
          <tspan
             x="0 4.3159199 6.2386799 9.2315998 12.1128 15.10572 16.54632"
             y="0"
             sodipodi:role="line"
             id="tspan14923">Group N</tspan>
        </text>
      </g>
    </g>
    <g
       id="g14925"
       transform="matrix(1.25,0,0,-1.25,-54.714288,1095.7438)">
      <g
         id="g14927"
         clip-path="url(#clipPath14929)">
        <text
           transform="matrix(1,0,0,-1,272.95,495.89)"
           style="font-variant:normal;font-weight:normal;font-size:5.88000011px;font-family:'Times New Roman';-inkscape-font-specification:TimesNewRomanPSMT;writing-mode:lr-tb;fill:#595959;fill-opacity:1;fill-rule:nonzero;stroke:none"
           id="text14933">
          <tspan
             x="0 2.9929199 5.8741202 7.4264398 10.30764 13.30056"
             y="0"
             sodipodi:role="line"
             id="tspan14935">61.54%</tspan>
        </text>
      </g>
    </g>
    <g
       id="g14937"
       transform="matrix(1.25,0,0,-1.25,-54.714288,1095.7438)">
      <g
         id="g14939"
         clip-path="url(#clipPath14941)">
        <text
           transform="matrix(1,0,0,-1,302.28,495.89)"
           style="font-variant:normal;font-weight:normal;font-size:5.88000011px;font-family:'Times New Roman';-inkscape-font-specification:TimesNewRomanPSMT;writing-mode:lr-tb;fill:#595959;fill-opacity:1;fill-rule:nonzero;stroke:none"
           id="text14945">
          <tspan
             x="0 2.9929199 5.8741202 7.4264398 10.30764 13.30056"
             y="0"
             sodipodi:role="line"
             id="tspan14947">38.46%</tspan>
        </text>
      </g>
    </g>
    <path
       d="m 242.42322,479.16883 183.72499,0 m -183.72499,0 0,11.3125 m 37.0875,-11.3125 0,11.3125 m 0,-11.3125 0,11.3125 m 36.6,-11.3125 0,11.3125 m 0,-11.3125 0,11.3125 m 36.74999,-11.3125 0,11.3125 m 0,-11.3125 0,11.3125 m 36.6125,-11.3125 0,11.3125 m 0,-11.3125 0,11.3125 m 36.675,-11.3125 0,11.3125 m 0,-11.3125 0,11.3125"
       style="fill:none;stroke:#d9d9d9;stroke-width:0.69328749;stroke-linecap:butt;stroke-linejoin:round;stroke-miterlimit:10;stroke-dasharray:none;stroke-opacity:1"
       id="path14949"
       inkscape:connector-curvature="0" />
    <path
       d="m 244.96072,486.44383 3.68537,0 0,-3.68538 -3.68537,0 0,3.68538 z"
       style="fill:#c0504d;fill-opacity:0.70196001;fill-rule:evenodd;stroke:none"
       id="path14951"
       inkscape:connector-curvature="0" />
    <g
       id="g14953"
       transform="matrix(1.25,0,0,-1.25,-54.714288,1095.7438)">
      <g
         id="g14955"
         clip-path="url(#clipPath14957)">
        <text
           transform="matrix(1,0,0,-1,243.94,487.01)"
           style="font-variant:normal;font-weight:normal;font-size:5.88000011px;font-family:'Times New Roman';-inkscape-font-specification:TimesNewRomanPSMT;writing-mode:lr-tb;fill:#595959;fill-opacity:1;fill-rule:nonzero;stroke:none"
           id="text14961">
          <tspan
             x="0 4.3159199 6.2386799 9.2315998 12.1128 15.10572 16.54632 18.580799"
             y="0"
             sodipodi:role="line"
             id="tspan14963">Group I1</tspan>
        </text>
      </g>
    </g>
    <g
       id="g14965"
       transform="matrix(1.25,0,0,-1.25,-54.714288,1095.7438)">
      <g
         id="g14967"
         clip-path="url(#clipPath14969)">
        <text
           transform="matrix(1,0,0,-1,272.95,486.84)"
           style="font-variant:normal;font-weight:normal;font-size:5.88000011px;font-family:'Times New Roman';-inkscape-font-specification:TimesNewRomanPSMT;writing-mode:lr-tb;fill:#595959;fill-opacity:1;fill-rule:nonzero;stroke:none"
           id="text14973">
          <tspan
             x="0 2.9929199 5.8741202 7.4264398 10.30764 13.30056"
             y="0"
             sodipodi:role="line"
             id="tspan14975">41.67%</tspan>
        </text>
      </g>
    </g>
    <g
       id="g14977"
       transform="matrix(1.25,0,0,-1.25,-54.714288,1095.7438)">
      <g
         id="g14979"
         clip-path="url(#clipPath14981)">
        <text
           transform="matrix(1,0,0,-1,302.28,486.84)"
           style="font-variant:normal;font-weight:normal;font-size:5.88000011px;font-family:'Times New Roman';-inkscape-font-specification:TimesNewRomanPSMT;writing-mode:lr-tb;fill:#595959;fill-opacity:1;fill-rule:nonzero;stroke:none"
           id="text14985">
          <tspan
             x="0 2.9929199 5.8741202 7.4264398 10.30764 13.30056"
             y="0"
             sodipodi:role="line"
             id="tspan14987">41.67%</tspan>
        </text>
      </g>
    </g>
    <g
       id="g14989"
       transform="matrix(1.25,0,0,-1.25,-54.714288,1095.7438)">
      <g
         id="g14991"
         clip-path="url(#clipPath14993)">
        <text
           transform="matrix(1,0,0,-1,333.12,486.84)"
           style="font-variant:normal;font-weight:normal;font-size:5.88000011px;font-family:'Times New Roman';-inkscape-font-specification:TimesNewRomanPSMT;writing-mode:lr-tb;fill:#595959;fill-opacity:1;fill-rule:nonzero;stroke:none"
           id="text14997">
          <tspan
             x="0 2.9929199 4.4335198 7.4264398 10.30764"
             y="0"
             sodipodi:role="line"
             id="tspan14999">8.33%</tspan>
        </text>
      </g>
    </g>
    <path
       d="m 242.42322,490.48133 183.72499,0 m -183.72499,0 0,11.3 m 37.0875,-11.3 0,11.3 m 0,-11.3 0,11.3 m 36.6,-11.3 0,11.3 m 0,-11.3 0,11.3 m 36.74999,-11.3 0,11.3 m 0,-11.3 0,11.3 m 36.6125,-11.3 0,11.3 m 0,-11.3 0,11.3 m 36.675,-11.3 0,11.3 m 0,-11.3 0,11.3"
       style="fill:none;stroke:#d9d9d9;stroke-width:0.69328749;stroke-linecap:butt;stroke-linejoin:round;stroke-miterlimit:10;stroke-dasharray:none;stroke-opacity:1"
       id="path15001"
       inkscape:connector-curvature="0" />
    <path
       d="m 244.96072,497.75633 3.68537,0 0,-3.68538 -3.68537,0 0,3.68538 z"
       style="fill:#9bbb59;fill-opacity:0.70196001;fill-rule:evenodd;stroke:none"
       id="path15003"
       inkscape:connector-curvature="0" />
    <g
       id="g15005"
       transform="matrix(1.25,0,0,-1.25,-54.714288,1095.7438)">
      <g
         id="g15007"
         clip-path="url(#clipPath15009)">
        <text
           transform="matrix(1,0,0,-1,243.94,477.96)"
           style="font-variant:normal;font-weight:normal;font-size:5.88000011px;font-family:'Times New Roman';-inkscape-font-specification:TimesNewRomanPSMT;writing-mode:lr-tb;fill:#595959;fill-opacity:1;fill-rule:nonzero;stroke:none"
           id="text15013">
          <tspan
             x="0 4.3159199 6.2386799 9.2315998 12.1128 15.10572 16.54632 18.580799"
             y="0"
             sodipodi:role="line"
             id="tspan15015">Group I2</tspan>
        </text>
      </g>
    </g>
    <g
       id="g15017"
       transform="matrix(1.25,0,0,-1.25,-54.714288,1095.7438)">
      <g
         id="g15019"
         clip-path="url(#clipPath15021)">
        <text
           transform="matrix(1,0,0,-1,272.95,477.79)"
           style="font-variant:normal;font-weight:normal;font-size:5.88000011px;font-family:'Times New Roman';-inkscape-font-specification:TimesNewRomanPSMT;writing-mode:lr-tb;fill:#595959;fill-opacity:1;fill-rule:nonzero;stroke:none"
           id="text15025">
          <tspan
             x="0 2.9929199 5.8741202 7.4264398 10.30764 13.30056"
             y="0"
             sodipodi:role="line"
             id="tspan15027">33.33%</tspan>
        </text>
      </g>
    </g>
    <g
       id="g15029"
       transform="matrix(1.25,0,0,-1.25,-54.714288,1095.7438)">
      <g
         id="g15031"
         clip-path="url(#clipPath15033)">
        <text
           transform="matrix(1,0,0,-1,302.28,477.79)"
           style="font-variant:normal;font-weight:normal;font-size:5.88000011px;font-family:'Times New Roman';-inkscape-font-specification:TimesNewRomanPSMT;writing-mode:lr-tb;fill:#595959;fill-opacity:1;fill-rule:nonzero;stroke:none"
           id="text15037">
          <tspan
             x="0 2.9929199 5.8741202 7.4264398 10.30764 13.30056"
             y="0"
             sodipodi:role="line"
             id="tspan15039">55.56%</tspan>
        </text>
      </g>
    </g>
    <g
       id="g15041"
       transform="matrix(1.25,0,0,-1.25,-54.714288,1095.7438)">
      <g
         id="g15043"
         clip-path="url(#clipPath15045)">
        <text
           transform="matrix(1,0,0,-1,333.12,477.79)"
           style="font-variant:normal;font-weight:normal;font-size:5.88000011px;font-family:'Times New Roman';-inkscape-font-specification:TimesNewRomanPSMT;writing-mode:lr-tb;fill:#595959;fill-opacity:1;fill-rule:nonzero;stroke:none"
           id="text15049">
          <tspan
             x="0 2.9929199 4.4335198 7.4264398 10.30764"
             y="0"
             sodipodi:role="line"
             id="tspan15051">0.00%</tspan>
        </text>
      </g>
    </g>
    <path
       d="m 242.42322,501.78133 183.72499,0 m -183.72499,0 0,11.3125 m 0,0 183.72499,0 m -146.63749,-11.3125 0,11.3125 m 0,-11.3125 0,11.3125 m 36.6,-11.3125 0,11.3125 m 0,-11.3125 0,11.3125 m 36.74999,-11.3125 0,11.3125 m 0,-11.3125 0,11.3125 m 36.6125,-11.3125 0,11.3125 m 0,-11.3125 0,11.3125 m 36.675,-11.3125 0,11.3125 m 0,-11.3125 0,11.3125"
       style="fill:none;stroke:#d9d9d9;stroke-width:0.69328749;stroke-linecap:butt;stroke-linejoin:round;stroke-miterlimit:10;stroke-dasharray:none;stroke-opacity:1"
       id="path15053"
       inkscape:connector-curvature="0" />
    <path
       d="m 244.96072,509.06883 3.68537,0 0,-3.68538 -3.68537,0 0,3.68538 z"
       style="fill:#8064a2;fill-opacity:0.70196001;fill-rule:evenodd;stroke:none"
       id="path15055"
       inkscape:connector-curvature="0" />
    <g
       id="g15057"
       transform="matrix(1.25,0,0,-1.25,-54.714288,1095.7438)">
      <g
         id="g15059"
         clip-path="url(#clipPath15061)">
        <text
           transform="matrix(1,0,0,-1,243.94,468.91)"
           style="font-variant:normal;font-weight:normal;font-size:5.88000011px;font-family:'Times New Roman';-inkscape-font-specification:TimesNewRomanPSMT;writing-mode:lr-tb;fill:#595959;fill-opacity:1;fill-rule:nonzero;stroke:none"
           id="text15065">
          <tspan
             x="0 4.3159199 6.2386799 9.2315998 12.1128 15.10572 16.54632"
             y="0"
             sodipodi:role="line"
             id="tspan15067">Group P</tspan>
        </text>
      </g>
    </g>
    <g
       id="g15069"
       transform="matrix(1.25,0,0,-1.25,-54.714288,1095.7438)">
      <g
         id="g15071"
         clip-path="url(#clipPath15073)">
        <text
           transform="matrix(1,0,0,-1,272.95,468.74)"
           style="font-variant:normal;font-weight:normal;font-size:5.88000011px;font-family:'Times New Roman';-inkscape-font-specification:TimesNewRomanPSMT;writing-mode:lr-tb;fill:#595959;fill-opacity:1;fill-rule:nonzero;stroke:none"
           id="text15077">
          <tspan
             x="0 2.9929199 5.8741202 7.4264398 10.30764 13.30056"
             y="0"
             sodipodi:role="line"
             id="tspan15079">12.50%</tspan>
        </text>
      </g>
    </g>
    <g
       id="g15081"
       transform="matrix(1.25,0,0,-1.25,-54.714288,1095.7438)">
      <g
         id="g15083"
         clip-path="url(#clipPath15085)">
        <text
           transform="matrix(1,0,0,-1,302.28,468.74)"
           style="font-variant:normal;font-weight:normal;font-size:5.88000011px;font-family:'Times New Roman';-inkscape-font-specification:TimesNewRomanPSMT;writing-mode:lr-tb;fill:#595959;fill-opacity:1;fill-rule:nonzero;stroke:none"
           id="text15089">
          <tspan
             x="0 2.9929199 5.8741202 7.4264398 10.30764 13.30056"
             y="0"
             sodipodi:role="line"
             id="tspan15091">75.00%</tspan>
        </text>
      </g>
    </g>
    <g
       id="g15093"
       transform="matrix(1.25,0,0,-1.25,-54.714288,1095.7438)">
      <g
         id="g15095"
         clip-path="url(#clipPath15097)">
        <text
           transform="matrix(1,0,0,-1,331.63,468.74)"
           style="font-variant:normal;font-weight:normal;font-size:5.88000011px;font-family:'Times New Roman';-inkscape-font-specification:TimesNewRomanPSMT;writing-mode:lr-tb;fill:#595959;fill-opacity:1;fill-rule:nonzero;stroke:none"
           id="text15101">
          <tspan
             x="0 2.9929199 5.8741202 7.4264398 10.30764 13.30056"
             y="0"
             sodipodi:role="line"
             id="tspan15103">12.50%</tspan>
        </text>
      </g>
    </g>
    <g
       id="g15105"
       transform="matrix(1.25,0,0,-1.25,-54.714288,1095.7438)">
      <g
         id="g15107"
         clip-path="url(#clipPath15109)">
        <text
           transform="matrix(1,0,0,-1,246.36,515.42)"
           style="font-variant:normal;font-weight:normal;font-size:5.88000011px;font-family:'Times New Roman';-inkscape-font-specification:TimesNewRomanPSMT;writing-mode:lr-tb;fill:#595959;fill-opacity:1;fill-rule:nonzero;stroke:none"
           id="text15113">
          <tspan
             x="0 3.1164 4.6687198 7.78512 10.90152"
             y="0"
             sodipodi:role="line"
             id="tspan15115">0.00%</tspan>
        </text>
      </g>
    </g>
    <g
       id="g15117"
       transform="matrix(1.25,0,0,-1.25,-54.714288,1095.7438)">
      <g
         id="g15119"
         clip-path="url(#clipPath15121)">
        <text
           transform="matrix(1,0,0,-1,243.24,524.4)"
           style="font-variant:normal;font-weight:normal;font-size:5.88000011px;font-family:'Times New Roman';-inkscape-font-specification:TimesNewRomanPSMT;writing-mode:lr-tb;fill:#595959;fill-opacity:1;fill-rule:nonzero;stroke:none"
           id="text15125">
          <tspan
             x="0 3.1164 6.2328 7.78512 10.90152 14.01792"
             y="0"
             sodipodi:role="line"
             id="tspan15127">10.00%</tspan>
        </text>
      </g>
    </g>
    <g
       id="g15129"
       transform="matrix(1.25,0,0,-1.25,-54.714288,1095.7438)">
      <g
         id="g15131"
         clip-path="url(#clipPath15133)">
        <text
           transform="matrix(1,0,0,-1,243.24,533.4)"
           style="font-variant:normal;font-weight:normal;font-size:5.88000011px;font-family:'Times New Roman';-inkscape-font-specification:TimesNewRomanPSMT;writing-mode:lr-tb;fill:#595959;fill-opacity:1;fill-rule:nonzero;stroke:none"
           id="text15137">
          <tspan
             x="0 3.1164 6.2328 7.78512 10.90152 14.01792"
             y="0"
             sodipodi:role="line"
             id="tspan15139">20.00%</tspan>
        </text>
      </g>
    </g>
    <g
       id="g15141"
       transform="matrix(1.25,0,0,-1.25,-54.714288,1095.7438)">
      <g
         id="g15143"
         clip-path="url(#clipPath15145)">
        <text
           transform="matrix(1,0,0,-1,243.24,542.38)"
           style="font-variant:normal;font-weight:normal;font-size:5.88000011px;font-family:'Times New Roman';-inkscape-font-specification:TimesNewRomanPSMT;writing-mode:lr-tb;fill:#595959;fill-opacity:1;fill-rule:nonzero;stroke:none"
           id="text15149">
          <tspan
             x="0 3.1164 6.2328 7.78512 10.90152 14.01792"
             y="0"
             sodipodi:role="line"
             id="tspan15151">30.00%</tspan>
        </text>
      </g>
    </g>
    <g
       id="g15153"
       transform="matrix(1.25,0,0,-1.25,-54.714288,1095.7438)">
      <g
         id="g15155"
         clip-path="url(#clipPath15157)">
        <text
           transform="matrix(1,0,0,-1,243.24,551.38)"
           style="font-variant:normal;font-weight:normal;font-size:5.88000011px;font-family:'Times New Roman';-inkscape-font-specification:TimesNewRomanPSMT;writing-mode:lr-tb;fill:#595959;fill-opacity:1;fill-rule:nonzero;stroke:none"
           id="text15161">
          <tspan
             x="0 3.1164 6.2328 7.78512 10.90152 14.01792"
             y="0"
             sodipodi:role="line"
             id="tspan15163">40.00%</tspan>
        </text>
      </g>
    </g>
    <g
       id="g15165"
       transform="matrix(1.25,0,0,-1.25,-54.714288,1095.7438)">
      <g
         id="g15167"
         clip-path="url(#clipPath15169)">
        <text
           transform="matrix(1,0,0,-1,243.24,560.35)"
           style="font-variant:normal;font-weight:normal;font-size:5.88000011px;font-family:'Times New Roman';-inkscape-font-specification:TimesNewRomanPSMT;writing-mode:lr-tb;fill:#595959;fill-opacity:1;fill-rule:nonzero;stroke:none"
           id="text15173">
          <tspan
             x="0 3.1164 6.2328 7.78512 10.90152 14.01792"
             y="0"
             sodipodi:role="line"
             id="tspan15175">50.00%</tspan>
        </text>
      </g>
    </g>
    <g
       id="g15177"
       transform="matrix(1.25,0,0,-1.25,-54.714288,1095.7438)">
      <g
         id="g15179"
         clip-path="url(#clipPath15181)">
        <text
           transform="matrix(1,0,0,-1,243.24,569.35)"
           style="font-variant:normal;font-weight:normal;font-size:5.88000011px;font-family:'Times New Roman';-inkscape-font-specification:TimesNewRomanPSMT;writing-mode:lr-tb;fill:#595959;fill-opacity:1;fill-rule:nonzero;stroke:none"
           id="text15185">
          <tspan
             x="0 3.1164 6.2328 7.78512 10.90152 14.01792"
             y="0"
             sodipodi:role="line"
             id="tspan15187">60.00%</tspan>
        </text>
      </g>
    </g>
    <g
       id="g15189"
       transform="matrix(1.25,0,0,-1.25,-54.714288,1095.7438)">
      <g
         id="g15191"
         clip-path="url(#clipPath15193)">
        <text
           transform="matrix(1,0,0,-1,243.24,578.33)"
           style="font-variant:normal;font-weight:normal;font-size:5.88000011px;font-family:'Times New Roman';-inkscape-font-specification:TimesNewRomanPSMT;writing-mode:lr-tb;fill:#595959;fill-opacity:1;fill-rule:nonzero;stroke:none"
           id="text15197">
          <tspan
             x="0 3.1164 6.2328 7.78512 10.90152 14.01792"
             y="0"
             sodipodi:role="line"
             id="tspan15199">70.00%</tspan>
        </text>
      </g>
    </g>
    <g
       id="g15201"
       transform="matrix(1.25,0,0,-1.25,-54.714288,1095.7438)">
      <g
         id="g15203"
         clip-path="url(#clipPath15205)">
        <text
           transform="matrix(1,0,0,-1,243.24,587.33)"
           style="font-variant:normal;font-weight:normal;font-size:5.88000011px;font-family:'Times New Roman';-inkscape-font-specification:TimesNewRomanPSMT;writing-mode:lr-tb;fill:#595959;fill-opacity:1;fill-rule:nonzero;stroke:none"
           id="text15209">
          <tspan
             x="0 3.1164 6.2328 7.78512 10.90152 14.01792"
             y="0"
             sodipodi:role="line"
             id="tspan15211">80.00%</tspan>
        </text>
      </g>
    </g>
    <g
       id="g15213"
       transform="matrix(1.25,0,0,-1.25,-54.714288,1095.7438)">
      <g
         id="g15215"
         clip-path="url(#clipPath15217)">
        <text
           transform="matrix(1,0,0,-1,243.24,596.3)"
           style="font-variant:normal;font-weight:normal;font-size:5.88000011px;font-family:'Times New Roman';-inkscape-font-specification:TimesNewRomanPSMT;writing-mode:lr-tb;fill:#595959;fill-opacity:1;fill-rule:nonzero;stroke:none"
           id="text15221">
          <tspan
             x="0 3.1164 6.2328 7.78512 10.90152 14.01792"
             y="0"
             sodipodi:role="line"
             id="tspan15223">90.00%</tspan>
        </text>
      </g>
    </g>
    <g
       id="g15225"
       transform="matrix(1.25,0,0,-1.25,-54.714288,1095.7438)">
      <g
         id="g15227"
         clip-path="url(#clipPath15229)">
        <text
           transform="matrix(1,0,0,-1,240.12,605.3)"
           style="font-variant:normal;font-weight:normal;font-size:5.88000011px;font-family:'Times New Roman';-inkscape-font-specification:TimesNewRomanPSMT;writing-mode:lr-tb;fill:#595959;fill-opacity:1;fill-rule:nonzero;stroke:none"
           id="text15233">
          <tspan
             x="0 3.1164 6.2328 9.3492002 10.90152 14.01792 17.134319"
             y="0"
             sodipodi:role="line"
             id="tspan15235">100.00%</tspan>
        </text>
      </g>
    </g>
  </g>
</svg>
